<mxfile host="app.diagrams.net" agent="Mozilla/5.0 (Macintosh; Intel Mac OS X 10_15_7) AppleWebKit/605.1.15 (KHTML, like Gecko) Version/26.0 Safari/605.1.15" version="28.1.1">
  <diagram name="Page-1" id="m-rhzqB_5XFTeQ7PAaiu">
    <mxGraphModel dx="3220" dy="1236" grid="1" gridSize="10" guides="1" tooltips="1" connect="1" arrows="1" fold="1" page="1" pageScale="1" pageWidth="1169" pageHeight="827" math="0" shadow="0">
      <root>
        <mxCell id="0" />
        <mxCell id="1" parent="0" />
        <mxCell id="532qYWjqUrfOTz7QYn1a-19" value="" style="ellipse;whiteSpace=wrap;html=1;sketch=1;curveFitting=1;jiggle=2;fillColor=none;" vertex="1" parent="1">
          <mxGeometry x="580.5" y="1151" width="296" height="229" as="geometry" />
        </mxCell>
        <mxCell id="6t9ZPCEymKF4s0xAKn-k-21" style="edgeStyle=none;curved=1;rounded=0;orthogonalLoop=1;jettySize=auto;html=1;fontSize=12;startSize=8;endSize=8;exitX=0.75;exitY=0;exitDx=0;exitDy=0;sketch=1;curveFitting=1;jiggle=2;" parent="1" source="W6fyROgd7GxFVGnl5Oas-2" edge="1">
          <mxGeometry relative="1" as="geometry">
            <mxPoint x="710" y="580" as="targetPoint" />
            <Array as="points">
              <mxPoint x="630" y="710" />
              <mxPoint x="680" y="660" />
              <mxPoint x="680" y="620" />
            </Array>
          </mxGeometry>
        </mxCell>
        <mxCell id="30Xa40fp6aPRj7GbNXiJ-1" value="enumerate storage" style="image;aspect=fixed;html=1;points=[];align=center;fontSize=12;image=img/lib/azure2/storage/Storage_Accounts_Classic.svg;" parent="1" vertex="1">
          <mxGeometry x="690" y="510" width="80" height="64" as="geometry" />
        </mxCell>
        <mxCell id="6t9ZPCEymKF4s0xAKn-k-2" value="" style="group;glass=1;rounded=0;opacity=30;sketch=1;curveFitting=1;jiggle=2;" parent="1" vertex="1" connectable="0">
          <mxGeometry x="490" y="770" width="170" height="120" as="geometry" />
        </mxCell>
        <mxCell id="W6fyROgd7GxFVGnl5Oas-4" value="" style="points=[[0.13,0.02,0],[0.5,0,0],[0.87,0.02,0],[0.885,0.4,0],[0.985,0.985,0],[0.5,1,0],[0.015,0.985,0],[0.115,0.4,0]];verticalLabelPosition=bottom;sketch=0;html=1;verticalAlign=top;aspect=fixed;align=center&#xa;;pointerEvents=1;shape=mxgraph.cisco19.laptop;fillColor=#e51400;strokeColor=#B20000;fontColor=#ffffff;gradientColor=default;" parent="6t9ZPCEymKF4s0xAKn-k-2" vertex="1">
          <mxGeometry width="170" height="119" as="geometry" />
        </mxCell>
        <mxCell id="W6fyROgd7GxFVGnl5Oas-2" value="" style="shape=image;html=1;verticalAlign=top;verticalLabelPosition=bottom;labelBackgroundColor=#ffffff;imageAspect=0;aspect=fixed;image=https://icons.diagrams.net/icon-cache1/Kameleon_Free_Pack-2373/Hacker-1007.svg" parent="6t9ZPCEymKF4s0xAKn-k-2" vertex="1">
          <mxGeometry x="44.347826086956516" width="81.30434782608695" height="81.30434782608695" as="geometry" />
        </mxCell>
        <mxCell id="6t9ZPCEymKF4s0xAKn-k-23" style="edgeStyle=none;curved=1;rounded=0;orthogonalLoop=1;jettySize=auto;html=1;fontSize=12;startSize=8;endSize=8;entryX=0.5;entryY=0;entryDx=0;entryDy=0;sketch=1;curveFitting=1;jiggle=2;" parent="1" target="6t9ZPCEymKF4s0xAKn-k-15" edge="1">
          <mxGeometry relative="1" as="geometry">
            <mxPoint x="830" y="730" as="targetPoint" />
            <Array as="points">
              <mxPoint x="810" y="590" />
              <mxPoint x="850" y="590" />
            </Array>
            <mxPoint x="770" y="580" as="sourcePoint" />
          </mxGeometry>
        </mxCell>
        <mxCell id="gacuUQbHWUEoRXtIffdP-1" style="edgeStyle=none;curved=1;rounded=0;orthogonalLoop=1;jettySize=auto;html=1;exitX=1;exitY=0.25;exitDx=0;exitDy=0;fontSize=12;startSize=8;endSize=8;sketch=1;curveFitting=1;jiggle=2;entryX=0.505;entryY=-0.076;entryDx=0;entryDy=0;entryPerimeter=0;" edge="1" parent="1" source="6t9ZPCEymKF4s0xAKn-k-15" target="6t9ZPCEymKF4s0xAKn-k-22">
          <mxGeometry relative="1" as="geometry">
            <mxPoint x="990" y="740" as="targetPoint" />
            <Array as="points">
              <mxPoint x="890" y="670" />
              <mxPoint x="930" y="680" />
              <mxPoint x="960" y="650" />
            </Array>
          </mxGeometry>
        </mxCell>
        <mxCell id="6t9ZPCEymKF4s0xAKn-k-15" value="validate folder content" style="image;html=1;image=img/lib/clip_art/general/Empty_Folder_128x128.png" parent="1" vertex="1">
          <mxGeometry x="810" y="650" width="80" height="80" as="geometry" />
        </mxCell>
        <mxCell id="6t9ZPCEymKF4s0xAKn-k-19" style="edgeStyle=none;curved=1;rounded=0;orthogonalLoop=1;jettySize=auto;html=1;fontSize=12;startSize=8;endSize=8;sketch=1;curveFitting=1;jiggle=2;" parent="1" source="W6fyROgd7GxFVGnl5Oas-4" edge="1">
          <mxGeometry relative="1" as="geometry">
            <mxPoint x="290" y="579" as="targetPoint" />
            <Array as="points">
              <mxPoint x="430" y="630" />
              <mxPoint x="370" y="580" />
            </Array>
          </mxGeometry>
        </mxCell>
        <mxCell id="6t9ZPCEymKF4s0xAKn-k-22" value="recycle bin" style="html=1;verticalLabelPosition=bottom;align=center;labelBackgroundColor=#ffffff;verticalAlign=top;strokeWidth=2;strokeColor=#0080F0;shadow=0;dashed=0;shape=mxgraph.ios7.icons.trashcan;" parent="1" vertex="1">
          <mxGeometry x="980.79" y="770" width="31" height="37" as="geometry" />
        </mxCell>
        <mxCell id="6t9ZPCEymKF4s0xAKn-k-24" value="" style="image;aspect=fixed;html=1;points=[];align=center;fontSize=12;image=img/lib/azure2/general/Files.svg;rotation=-90;direction=south;" parent="1" vertex="1">
          <mxGeometry x="890.86" y="826.14" width="66.79" height="61.07" as="geometry" />
        </mxCell>
        <mxCell id="6t9ZPCEymKF4s0xAKn-k-26" value="enumerate dns records" style="image;aspect=fixed;html=1;points=[];align=center;fontSize=12;image=img/lib/azure2/networking/DNS_Zones.svg;sketch=1;curveFitting=1;jiggle=2;" parent="1" vertex="1">
          <mxGeometry x="450.00000000000006" y="430" width="80" height="80" as="geometry" />
        </mxCell>
        <mxCell id="6t9ZPCEymKF4s0xAKn-k-27" value="validate if tenant exists" style="image;aspect=fixed;html=1;points=[];align=center;fontSize=12;image=img/lib/azure2/other/Entra_Identity.svg;" parent="1" vertex="1">
          <mxGeometry x="180" y="529" width="98" height="87.1" as="geometry" />
        </mxCell>
        <mxCell id="6t9ZPCEymKF4s0xAKn-k-29" style="edgeStyle=none;curved=1;rounded=0;orthogonalLoop=1;jettySize=auto;html=1;entryX=0.5;entryY=1;entryDx=0;entryDy=0;entryPerimeter=0;fontSize=12;startSize=8;endSize=8;sketch=1;curveFitting=1;jiggle=2;" parent="1" source="W6fyROgd7GxFVGnl5Oas-2" target="6t9ZPCEymKF4s0xAKn-k-26" edge="1">
          <mxGeometry relative="1" as="geometry">
            <Array as="points">
              <mxPoint x="580" y="650" />
            </Array>
          </mxGeometry>
        </mxCell>
        <mxCell id="6t9ZPCEymKF4s0xAKn-k-33" value="restore items" style="edgeStyle=none;curved=1;rounded=0;orthogonalLoop=1;jettySize=auto;html=1;fontSize=12;startSize=8;endSize=8;sketch=1;curveFitting=1;jiggle=2;flowAnimation=0;" parent="1" edge="1">
          <mxGeometry relative="1" as="geometry">
            <mxPoint x="670" y="880" as="targetPoint" />
            <mxPoint x="840" y="890" as="sourcePoint" />
            <Array as="points">
              <mxPoint x="780" y="910" />
            </Array>
          </mxGeometry>
        </mxCell>
        <mxCell id="6t9ZPCEymKF4s0xAKn-k-34" value="victim GitHub" style="shape=image;html=1;verticalAlign=top;verticalLabelPosition=bottom;labelBackgroundColor=#ffffff;imageAspect=0;aspect=fixed;image=https://icons.diagrams.net/icon-cache1/Picons_Social-2097/github_rounded-685.svg" parent="1" vertex="1">
          <mxGeometry x="440" y="1070" width="87" height="87" as="geometry" />
        </mxCell>
        <mxCell id="532qYWjqUrfOTz7QYn1a-20" value="modify managed identity" style="edgeStyle=orthogonalEdgeStyle;rounded=0;orthogonalLoop=1;jettySize=auto;html=1;exitX=0.499;exitY=-0.003;exitDx=0;exitDy=0;exitPerimeter=0;curved=1;sketch=1;curveFitting=1;jiggle=2;" edge="1" parent="1" source="6t9ZPCEymKF4s0xAKn-k-38">
          <mxGeometry relative="1" as="geometry">
            <mxPoint x="580" y="890" as="targetPoint" />
            <Array as="points">
              <mxPoint x="642" y="1080" />
              <mxPoint x="580" y="1080" />
              <mxPoint x="580" y="890" />
            </Array>
          </mxGeometry>
        </mxCell>
        <mxCell id="6t9ZPCEymKF4s0xAKn-k-38" value="Managed identity" style="image;aspect=fixed;html=1;points=[];align=center;fontSize=12;image=img/lib/azure2/identity/Entra_Managed_Identities.svg;" parent="1" vertex="1">
          <mxGeometry x="603.8" y="1220" width="76.2" height="67.73" as="geometry" />
        </mxCell>
        <mxCell id="6t9ZPCEymKF4s0xAKn-k-39" value="" style="verticalLabelPosition=bottom;html=1;verticalAlign=top;align=center;strokeColor=none;fillColor=#00BEF2;shape=mxgraph.azure.powershell_file;pointerEvents=1;" parent="1" vertex="1">
          <mxGeometry x="984.5799999999999" y="870" width="53.21" height="60" as="geometry" />
        </mxCell>
        <mxCell id="6t9ZPCEymKF4s0xAKn-k-40" value="" style="dashed=0;outlineConnect=0;html=1;align=center;labelPosition=center;verticalLabelPosition=bottom;verticalAlign=top;shape=mxgraph.weblogos.json" parent="1" vertex="1">
          <mxGeometry x="851.79" y="879.3599999999999" width="56" height="60.64" as="geometry" />
        </mxCell>
        <mxCell id="6t9ZPCEymKF4s0xAKn-k-41" style="edgeStyle=none;curved=1;rounded=0;orthogonalLoop=1;jettySize=auto;html=1;fontSize=12;startSize=8;endSize=8;sketch=1;curveFitting=1;jiggle=2;startArrow=block;startFill=1;" parent="1" source="6t9ZPCEymKF4s0xAKn-k-34" edge="1">
          <mxGeometry relative="1" as="geometry">
            <mxPoint x="530" y="890" as="targetPoint" />
            <mxPoint x="550" y="1030" as="sourcePoint" />
            <Array as="points">
              <mxPoint x="500" y="980" />
            </Array>
          </mxGeometry>
        </mxCell>
        <mxCell id="6t9ZPCEymKF4s0xAKn-k-43" value="" style="shape=image;html=1;verticalAlign=top;verticalLabelPosition=bottom;labelBackgroundColor=#ffffff;imageAspect=0;aspect=fixed;image=https://icons.diagrams.net/icon-cache1/Kameleon_Free_Pack-2373/Hacker-1007.svg;" parent="1" vertex="1">
          <mxGeometry x="277.99782608695654" y="1070" width="81" height="81" as="geometry" />
        </mxCell>
        <mxCell id="wxph44E_9f14vyTxGmuK-2" value="" style="shape=image;verticalLabelPosition=bottom;labelBackgroundColor=default;verticalAlign=top;aspect=fixed;imageAspect=0;image=data:image/png,iVBORw0KGgoAAAANSUhEUgAAAjMAAAIkCAYAAADrgarhAAAAAXNSR0IArs4c6QAAAERlWElmTU0AKgAAAAgAAYdpAAQAAAABAAAAGgAAAAAAA6ABAAMAAAABAAEAAKACAAQAAAABAAACM6ADAAQAAAABAAACJAAAAABV0cxCAABAAElEQVR4AeydB3wUxRfH34beQpOmKL333kF6701QUUQQEAUBEQuigIIIogIKSJEOooj03nvvPfQWemgJIcn+efc3MeXK3t2W2d3ffj5H7nZnZ977vrnhdzOzM5Isy+TpCA0NpRQpUnhKZvvrERERDgaJEye2PQtPAFCnPBH67/qNGzcoa9as/53w4V1UVBQFBwfT5cuX6datW3Tnzh26fft2nL+xz52/l9pzw+CDHWrcki9TmJQxY0bi1wsvvBDzNzAw0MGJz2XOnJleeeUVxzU1yrRSHminlEcT7ZRyVmq0U8pLS5gS/+smZIIzIGA6AixWrl+/ThcuXIh5Xbx4Meb9kcskZ3juFb88H6k9JzEwxZlbyWW69fi5Bfy65NaSp8+vlsmTVMqZMyflyJGD+G/sV6ZMmdzej4sgAALmIAAxY444wUoQIBYsV65coTNnzjheZ8+ejfm7/9wz+YXnjPhVFqziENgXFC5T0Onn5/gV92CxU6lQailfvnyUN29eiv03S5YscRPjEwiAgLAEJAwzqRcbdN8qZ4nuW9es+DvJPSzHjh1zvPbu3Uvnzp2j7ccfCjv049ob814JkaKkVqWzUuHChalIkSIxr2zZspnXqeeWo51SHj60U8pZGT3MBDGjPFYeU6KR8IgoJgEaif+jYOHCQoUFS/Rr5c6rEC0xNUW8N6UDQ6ScZctS2VgvMwkctFPK6xTaKeWsIGaUsxI+JRoJ5SGyayMREhJCu3fvpp07d9KuXbso3459NOJJGogX5VVHyJT5Mz+VKlSoQBUrVnS8SpcuTcmTJxfSVrRTysNi13ZKOaH/UkLM/MfC9O/QSCgPoV0aiaCgINq+fTtt27bN8dp79imEi/JqYuqUr5bMKFWuXJmqVKlC/NffJ9LUgoF2SjlJu7RTyom4Tgkx45qN6a6gkVAeMis2EjxkxPNcNm/eHPMS+RFn5dFCSjUIFHuZpOrVq1P0i5+qMuJAO6WcuhXbKeXee5cSYsY7XkKnRiOhPDxWaSROnjxJGzZsoPXr11P29VsxZKS8Ctg+ZYEs4VLNmjWpVq1axH+zZ8+uCxO0U8oxW6WdUu6x7ykhZnxnJ9ydaCSUh8SsjQQvOLdu3TpavXo1rVmzhs7eToFhI+VhR0o3BErmTCTVq1eP+FWjRg1KnVqb9X7QTrkJQrxLZm2n4rmhy0eIGV0w61MIGgnlnM3SSPDQ0b59+2j58uW0bNky2nz4HsSL8jAjpR8EmlbLKTVq1IgaN27sWP/Gj6zi3Ip2Kg4Otx/M0k65dUKnixAzOoHWoxg0Esopi9xIhIeHO4aOFi1aRIsXL6Zzd1NBwCgPLVJqQKBEjgCpRYsWxK/y5ctTQECAz6WgnVKOTuR2SrkX+qSEmNGHsy6loJFQjlm0RuLJkye0cuVKWrhwIU35azfEi/JQIqXOBHJneOwQNq1bt3ZMJvZ2Lzi0U8oDJlo7pdxy/VMaLma4EccBAnYk8PjxY4eA+fvvv2nO8iMQMHasBCb3eWDKh1JI84bUqlUrxzwbb4WNyd2H+QIR4I1qefNXow6sAKwiefziUQ7TqF88YWFhjvkv8+fPpxmLD0DAKA8ZUgpOgIVNaNvm1L59e0ePTaJEiZxajHbKKRanJ41qp5waI/hJw3tmeIKjpwMB9UTo/9fRSCjjxKn0rFORkZGOJ5DmzJlDE+dv91zhlbuBlCAgJIFc6R9JLGo6duxI5cqVi2Mj2qk4ONx+0LOdcmuICS5CzJggSEpNRCOhlJQ+YubAgQM0c+ZMmjt3Ll24jy0DlEcHKa1EoPgrkvTmm2/S66+/Trly5cJGk14EF2JGOSyIGeWshE8JMaM8RFo1EsHBwTR79mz6/fffac+ZMPTCKA8JUtqAQP0KL0qdOnVyzLFJly6dDTz2z0Wt2in/rBLzbogZMePik1UQM8qxqdlI8DDSihUraMqUKTRv5TEIGOVhQEobE3j/9epSly5dqFKlSjam4N51Ndsp9yWZ/yrEjPljGOMBxEwMCo9v1GgkLl++7BAwLGKwEq9H5EgAAk4JlM2bTOrWrRvxUBR6a+IiUqOdipujdT9BzFgothAzyoPpayPBE9bXrl1L48ePp/mrjqMXRjlypAQBjwR6vVFD6tmzJ5UqVcpjWjsk8LWdsgOb+D5CzMQnYuLPEDPKg+dtI8FrwkyfPp1+/vlnOnQxCiJGOWqkBAGvCdQuk1nq3bs3tWzZkuy8do237ZTXoC10A8SMhYIJMaM8mEobiWvXrtG4ceOo3PiZ1CgcmzoqJ4yUIOA/gYJZn0kffPABvfvuuxQYGOh/hibLQWk7ZTK3NDEXYkYTrMZkCjGjnLunRuLIkSM0evRorAujHClSgoCmBAZ90EL68MMPKXv27JqWI1LmntopkWw12hajxYzvu5UZTQ7lW5LAxo0biXcKzl++tYwF7iwZYjhlUgJDxy6SM+WrJb/99tt09OhRk3oBs61KAGLGqpE1kV9RUVGODR4rVKhAlRp2k//ecBZzYkwUP5hqLwL8IyNfuVZy06ZNaevWrfZyHt4KSwBiRtjQWN+wZ8+eOSb1Fi1alBq/PlDefPgeRIz1ww4PLULgz7Wn5HJ135GrV6/uWOdJydY4FnEdbghIAGJGwKBY3STe7HHSpEmUL18+eq37N/KB8xEQMVYPOvyzLIE1e27ItVr1lsuWLevoYeWeVhwgoDcBiBm9idu4vCdPntCPP/5IefLkoe4Dx8ungpNCxNi4PsB1axHYfvyhzD2sxYsXd+yHxitz4wABvQhAzOhF2sblsIjhJ5Ny585NPT79RT53NxVEjI3rA1y3NoF9QeFyq3cGyzx8zPukQdRYO96ieAcxI0okLGgHP9Y4ZswYh4jp9cVE+WJIIESMBeMMl0DAGYGDFyLlNu9+7RA18+bNIww/OaOEc2oRgJhRiyTyiSEQHh5Ov/zyC+XNm5d6fvYrREwMGbwBAfsRYFHTsvOXcokSJRxzajBR2H51QA+PIWb0oGyTMrg7+ffff6cCBQpQl34/YjjJJnGHmyCghMDes08dc2rKly9Pq1evVnIL0oCAYgIQM4pRIaE7AosWLSKe+Nehx7fyyRtJMJzkDhaugYCNCWw9GiLXaN5LrlmzJu3cudPGJOC6mgQgZtSkacO8eNGsKlWqUMMOA+T9555BxNiwDsBlEPCFwMqdV+VSNTvJbdq0odOnT/uSBe4BgRgCEDMxKPDGGwLc+LRq1Yp40az1+29BxHgDD2lBAARiCMxedljOUaKJ3KtXL7p161bMebwBAW8IQMx4Qwtp6c6dO9S7d2/ixmfuiqMQMagTIAACqhAYPWW1HPhKFfm7774jXlgTBwh4QwBixhtaNk7LWw/8/PPPtDl3SRo5aQVEjI3rAlwHAS0J9Plqily4cGH666+/tCwGeVuMAMSMxQKqhTtr1qyhkiVL0nufjJMbhaeAkNECMvIEARCIIXDiemK5yRufyrVq1cIO3TFU8MYdAYgZd3Rsfu3ixYvUunVrqt7sfUzutXldgPsgYASBFTuuOHbo7tOnD4WEhBhhAso0CQGIGZMESk8zedG74cOHU9aCdeU5y4+gJ0ZP+CgLBEAgAYHvJi6XCxYsSLNmzSIsupcAD048JwAxg2oQh8CmTZscQ0p9h0yDiIlDBh9AAASMJHDhfhq5bdchcu3atenUqVNGmoKyBSQAMSNgUIww6e7du/Tuu+9SxQZd5QPnIyBkjAgCygQBEPBIgIeecpZsKg8ZMoS4FxkHCDABiBnUA/rzzz+pSJEiNH72ZogY1AcQAAFTEPhk+Cy5dOnSWEXYFNHS3kiIGe0ZC1tCcHAw8eqbTd/8TOYuXGENhWEgAAIg4ITAvqBwxyrC/fr1o9DQUCcpcMouBCBm7BLpeH7+8ccfNKJwSeLVN+NdwkcQAAEQMBWBb39ZIvPyETt27DCV3TBWPQIQM+qxNEVO9+7do44dO1Lzt76QRzxBb4wpggYjQQAEPBI4fEmWS9d6S/7ss88wl8YjLeslgJixXkxderR27VrHztbT/t6L3hiXlHABBEDAzAQGj/lTrlixIh0/ftzMbsB2LwlAzHgJzIzJeSyZ91Oq1rSnfPY2VvA1YwxhMwiAgHICO048kvOUaSH/9NNPWJdGOTZTp4SYMXX4PBt/8OBBKlu2LPZT8owKKUAABCxGoPvA8XL9+vXp6tWrFvMM7sQnADETn4hFPkdFRdGoUaOoUKV22IrAIjGFGyAAAt4TWLLlgvxn0fK0cOFC72/GHaYhADFjmlApN/TatWvEv0Y+GDQJc2OUY0NKEAABixLoHpZKbvz6QLlbt270+PFji3ppb7cgZiwW/yVLltD3xcrQ0q0XIWQsFlu4AwIg4B+BsTM3yjzszsPvOKxFAGLGIvF8+vSpY5JvvXb98Mi1RWIKN0AABNQncPBCpMzD7z///DMmB6uP17AcIWYMQ69ewWfOnKHKlStjkq96SJETCICAxQm898k4uWXLlsT70uEwPwGIGZPHcN68efRK8cby9uMPMaxk8ljCfBAAAX0JzF91XC5VqhRWDtYXuyalQcxoglX7TMPCwqhHjx7UsvOXEDHa40YJIAACFiVw+mYyx8rBo0ePxrCTiWMMMWPC4J07d46qVKlCP/6+DkLGhPGDySAAAuIR6PXFRMew0/3798UzDhZ5JAAx4xGRWAkWL15MqYvWIwwriRUXWAMCIGB+AjzsVKZMGTpw4ID5nbGZBxAzJgl4ZGQk8QZq9dv3l9PKAeiRMUncYCYIgIC5CBy/lkguXLm9PG3aNHMZbnNrIWZMUAFu375NDRs2JN5AzQTmwkQQAAEQMD2Bjj2Hyx9++CF24DZJJCFmBA8Ud3eWK1eOeEluwU2FeSAAAiBgKQLjZm2SX331VeJV1XGITQBiRuD4zJkzh7i78+SNJBAyAscJpoEACFiXwIYDtx2rBm/fvt26TlrAM4gZAYPI82MGDBhArbt8BREjYHxgEgiAgL0InL+XWi5T+215ypQp9nLcRN5CzAgWrJCQEGratCkNHbsIQkaw2MAcEAABexN4o9d3cu/evSkiIsLeIAT0HmJGoKAEBQVRpUqV6O8NZyFkBIoLTAEBEACBaAIjJ62QGzduTFiPJpqIGH8hZsSIA23atImWlq1OB85HQMgIEhOYAQIgAALOCCzefF7mH55nz551dhnnDCAAMWMA9PhFTp8+nSo26Cp3D0sFIRMfDj6DAAiAgIAEePft8RWq0ZYtWwS0zn4mQcwYGHNZlmnQoEH0WvdvIGIMjAOKBgEQAAFfCIx4kkYuX6+LzE+e4jCWAMSMQfzDw8OpU6dO9MWo+RAyBsUAxYIACICAGgT4ydNvvvlGjayQh48EIGZ8BOfPbfzEUoMGDWjyn7sgZPwBiXtBAARAQBAC/YdNl9977z086WRQPCBmdAZ/9epVql69Oq3YcQVCRmf2KA4EQAAEtCTw84wNjp23nzx5omUxyNsJAYgZJ1C0OnXy5EmqXLky7T4dCiGjFWTkCwIgAAIGEvhz7Sm5Tp06dOfOHQOtsF/REDM6xXz37t20qlJtOn0zGYSMTsxRDAiAAAgYQYC3QOAe+CtXrhhRvC3LhJjRIexr166lEjXewKPXOrBGESAAAiAgAoH9557JVatWpdOnT4tgjuVtgJjROMR///03VWvaE70xGnNG9iAAAiAgGoFTwUnlltWq0aFDh0QzzXL2QMxoGNLZs2dTo46fQMhoyBhZgwAIgIDIBPY/SCtHVGlOO3fuFNlM09sGMaNRCCdPnkxt3v0aQkYjvsgWBEAABMxCoGhkUrlUzU4yb1uDQxsCEDMacP3ll1/ozQ9GQshowBZZggAIgIBZCfC2NevWrTOr+ULbDTGjcnjGjRtHXfr9CCGjMldkBwIgAAJWIFC1SQ95zZo1VnBFKB8gZlQMBwuZHp/+AiGjIlNkBQIgAAJWI1C92fsQNCoHFWJGJaA8tAQhoxJMZAMCIAACFifAggZDTuoFGWJGBZaTJk3C0JIKHJEFCIAACNiJAA85YVKwOhGHmPGT47Rp0+it3qMwtOQnR9wOAiAAAnYkwJOCt23bZkfXVfUZYsYPnHPmzKGOPYdDyPjBELeCAAiAgN0JlK3TWd6zZ4/dMfjlP8SMj/h4Zd/WXb6CkPGRH24DARAAARD4j8CVOq2wUvB/OLx+BzHjNTKilStXYmVfH7jhFhAAARAAAecEGoWnkDvWq0cnT550ngBn3RKAmHGLJ+HFLVu2UM2WH6JHJiEanAEBEAABEPCDAG99ULduXbpw4YIfudjzVun69esePY+IiKDEiRN7TGf1BIcPH6YazXtByFg90PAPBEAABAwkUChbhLRo0SLKnDmzgVZ4V3RwcDBlyZLFu5tUTC3Jsuf/m0NDQylFihQqFmu+rE6dOkWfVK1B8x8FegZmPvdgMQiAAAiAgEAEyudPIfFj2+nSpRPIKtem3Lhxg7Jmzeo6gcZXMMykAPDly5ep3vOxTAgZBbCQBARAAARAwG8Cu0+Hyk2bNqUnT574nZcdMoCY8RDlO3fuUIMGDej0zWTokfHACpdBAARAAATUI7B2b7Dcvn174qkeONwTgJhxw4cVMSvj/eeeQci44YRLIAACIAAC2hD4c+0puWvXrqRkSog2FpgjV4gZF3FiJcyKeMOB2xAyLhjhNAiAAAiAgPYEJszbJn/++efaF2TiEiBmXASvZ8+exIrYxWWcBgEQAAEQAAHdCAwe86c8fvx43cozW0EQM04iNnToUBo7cyOEjBM2OAUCIAACIGAMgXf7/yTzI9s4EhKAmInHZPr06TTg25kQMvG44CMIgAAIgIDxBBp2GCDv2rXLeEMEswBiJlZA1q9fT691/wZCJhYTvAUBEAABEBCLwDvNmtG5c+fEMspgayBm/g3AiRMnqGiTbgaHA8WDAAiAAAiAgHsCvO1B48aN6d69e+4T2ugqxMzzYN+6dYuaNGlCaeUA9MrYqPLDVRAAARAwK4GDFyLlNm3a0LNnz8zqgqp2217MPH36lFq2bEnHryWCkFG1aiEzEAABEAABLQks335Zfv/997UswjR5217MdOvWjdbtuwkhY5oqC0NBAARAAASiCfCTt2PGjIn+aNu/thYzI0eOpEl/7ICQsW31h+MgAAIgYH4CPT/7VV6xYoX5HfHDA9uKmWXLllHvwZMhZPyoPLgVBEAABEBADAK1WvWWT548KYYxBlhhSzHDAa/T5iMIGQMqHIoEARAAARDQhkDz5s3p/v372mQueK62EzMhISHUokULwcMC80AABEAABEDAOwKHL8ny66+/TlFRUd7daIHUthIzHOA333yTDl2MQq+MBSovXAABEAABEIhLYOH6M/LgwYPjnrTBJ1uJGd5zacGakxAyNqjYcBEEQAAE7Ergi1HzbbeHk23EDM/0HjhiNoSMXb/d8BsEQAAEbESA93A6ffq0bTy2hZi5cOEChb2GrQpsU6vhKAiAAAiAALVu3ZoeP35sCxKWFzO8wm/btm2pUXgK9MrYokrDSRAAARAAASaw9+xTuUePHraAYXkx07dvX9p6NARCxhbVGU6CAAiAAAjEJvDbgp3yb7/9FvuUJd9bWsz88ccf9MPUNRAylqy6cAoEQAAEQEAJgU4ffi8fPnxYSVLTprGsmAkKCqLmb30BIWPaqgnDQQAEQAAE1CLQrl07evTokVrZCZePJcVMeHg4vfbaa8LBhkEgAAIgAAIgYAQBXl/NyjtsJzYCqtZlfvbZZ5gn4yfknOkeSlmyZKHMmTNT9N9MmTIRT6i+d+8e3b17N86r4J37NP9RIHrC/OSO20HATgRypX8kpU+fnjJmzEj8N0OGDDEv5hAcHEw3b950/OX3710Poe5hqdDO+FhJeGPlWXVnSW+88YaPOYh7myTLnutFaGgopUiRQlwvYlm2atUqerXFB56dinUP3sYlsGr+KKlZs2ZxTyr4FBkZSbzv1b59+2j37t20a9cuiEoF3JAEBOxAoEHFl6QKFSpQ2bJlHa+cOXP65PYnn3xCQ37+G228T/T+f9PVYyul3Llz+5FDwltv3LhBWbNmTXhBpzOWEjO3bt2i4sWL04X7aVDRfaxA3CNz+fJlSpxYnU47FsIsbLZs2UJbt26lfzadQ2x8jA1uAwGzEMiR9oFUtWpVqlatGvHfkiVLUqJEiVQx/9SpU5SzZFO0I37QfLVkRonbZLXaeTbFaDGjzv9YfkBV89auXbtCyPgJlLsf1azg3KNXo0YNx4tNi4iIkFjcLF++nDZs2EDr999Co+RnzHA7CIhAoMWreaR69epR3bp16UbRopqZVKBAAapSOpOEtsN3xBsP3pGHDRsmffXVV75nItidlumZmTx5Mr35wUj8x+hnBTu9+y+pWLFifubi+fbooUuee7N48WJauHAh9s3yjA0pQEAYAiFSlNS/TWVq1aoV1a9fX9epCBMnTqS3+4xGe+9nbTi4caZj6M/PbBy3G90zYwkxc+7cOXqpSANUbD9rZIUCKaWDBw/6mYuy26PFTOzUISEhNH/+fJo+fTp6bGKDwXsQEIhAmzoFpLfffpuaNGlCyZIlM8Qyfggh5YsV0Ob7Sb/4K5J04MABSpkypZ85GT/MZPpHs6Oioqhz585+BwIZEHXo0MFQDGnTpqVu3brRtm3b6MLBJdLg3q0kftrBUKNQOAiAAJXIESD99PW70r3zm6UlS5Y49vwxSshwOPjJp/b1C6Nt8LNuHr4kyzyh2gqH6cXMTz/9RKt3X4dCV6E28qJKohw8Lj5ixAi6dOkSrZg7UmpZMy8aLlGCAztsQ+DdNhWkXasmS/yU4oABAwx9WiU+9Pbt28c/hc8+EBg1eZXM8xfNfph6mIm3N89RogmEjAq1sFqxdI6JuSpkpSgLZ8NMnm7k3c95rHzx1Km0/0FaxN0TMFwHAR8IFHkpSurevbujx5vXfxH1ePjwISXNXAbtgAoBKpQtQuLtDlKnTu1zbkbPmTFtzwwPL3Xp0sVn8LgxLgGexCf6wetSDB8+nPY/762Z++tnUuXCadBbI3rQYJ9pCDStllNas+AHiX8k9u/f37GQncjGp0mThtrVK4Q2QIUgnbie2PTDTaYVM2PHjqW1e4OhylWoyJxF8+bNVcpJ+2x4rJ4nIPLifDtX/ia1rVsQDZr22FGCRQn07FhNOrNnobR69WrHpN6AAPP8t9CiRQuLRkV/t3hT5o0bN+pfsEolmnKYCU8vqRT9f7Mp9jI5fo2pm6v73HwZZnKX44kTJ2jkyJE0Yd42CFx3oHANBP4lMOiDFtJHH31E2bJlMy0T3uogbY6q+M6rFEEeYuThJl+ebsIwk5dB4O0X+IkXHOoRaNy4sXqZGZRToUKFaNq0aRR8aq30Uec66KkxKA4oVmwCvDbMsP7tpQeXtkks/s0sZJg07x3Hq9mKTd081h27GiB/+eWX5jE4lqXm6U/812j+D2vZtktQ4rGC6O/bBg0a+JuFMPe/8sor9Msvv9DN0+ukDzvVRCMnTGRgiNEEvvn4NSnptb00ePBgx6PNRtujVvlWar/UYuJPPt+MXyzv2bPHnywMuddUYoa7sUp8OMQQUFYutHr16pZz7+WXX3Y8+XTl6Aqpc8uyEDWWizAcUkrgk/caOXpihgwZQunSpVN6m2nS8erDONQlwFsDPXv2TN1MNc7NVGKmT58+VDQyKXplVKwUjau8IpllR3Rf3M6TJw/NmTOHjm2bJzWrnguixheIuMeUBHiNmOsnVks//vgjZcqUyZQ+KDG6XLlySpIhjRcEdp16Io8ePdqLO4xPahoxwxsTTv9nP4SMynWmVq1aKucoZnalS5emVatW0ebF46WKBVNB1IgZJlilAoEmVXNIx7fPl2bOnEm8nIHVD96NG080qh/lj76eKvPDNmY5TCFmnjx5Qu+//75ZmJrKTt7R2k4H7+jLj3TPm/C5lPeFUIgaOwXf4r6WyZNUWr/wJ2nNmjVUqlQpi3sb171XX3017gl8UoVAz549VclHj0xMIWaGDh1KJ28kQa+MBjWibNmyGuQqdpa8jsZbb71Fp06dohEDX4egETtcsM4DgdKBIdK0MX2lQ4cOUcOGDT2ktublatWqWdMxg736Z9M5mTf/NcMh/Dozx48fpzxlWkDIaFCb6pTNIm3ZskWDnD1nqfY6M55LdJ3i6tWr9Omnn9JvC3ainrnGhCsCEvj8/WbSoEGDiDdpVXpEREQ4kiZOnFjpLcKn48mqUYFF8P3VIFK5MzyWeB2vwMBAt7kbvc6M0LWZ15Th4aWVbhHioq8EKlas6OutlrrvpZdeohkzZtDOnjulDz/8kLYcuY9G0UmEc6R9ICVPnpx4BWb+G//l7DyfS5IkCYWHh1NYWJjj9fTp05j37s6leZ4Oe3A5CcTzU61q5ZPGjBlDo/Lnd57AZme5jlUvl1Vas+cGvrsqx/7c3VTywMGDHfVN5axVzU5oMTN37lxaufMqKqeqIf8vs/Lly//3Ae+Ixd3OnTtp6tSp0tJPv6D5jwItW/dypX8k8YJj0S9+2iX6ffTfLFmyEAs9/o+CjxvG1BHHMCD35F25coV4xVdXr+DgYMp/666l48YrtLKIWda0qTHRELhUR3u2Z7HAFprXtBETlsmHO3eWihcvLqwTwg4z8Y6oBQsWJFaFwtIzuWFXj62UcufObYgXIg0zOQNw7949+vzzz2nMtLWmrH/l86eQcuTIQbyIIL+i3/PfrFmzkpn233EWH2fnousUDznw0OGl5xuSXrx40fE39vsD5yNMGVOe3/XJJ584esSc+a/0nBWHmdj3efPmUcvOX5oytkpjZ2S6euWzSbx3kyQ5n2Zo9DCTsGLm448/pmHj/kHF1Kj28rLmmR6fcVkxNSo2Jtvo/3hiTgj6hlfC7NGjB2079kC4ulgw6zOpQIECDtHPwj/6xWLFjofSOhUVFUWXL1+mkydPxnnxhPDz91ILF+fmNXJL48ePJ14zSY3DqmKG45ezZFPh4qdGzETJ468pX0kdO3Z0ag7EjBMsqJROoKh8qu7z8eXNmzernKvy7JT+x6M8R+1SRkZGEv9n8t4n4wxpKPNkfOLo3i1SpAhFvwoXLkypUqXSzmkT5qxGneIeuWPHjsW8jh49SsHPPxsxdydnuoeOBe/at2+vajSsKmb4exqRupAh31FVAyRwZtwW8Y+A1KlTJ7ASYiYBEqJGjRrR3xvOolI6YaPWKd6MkfcwMupQ4z8evW3nX/M8IX3BmpOa1c0qRQKlEiVKEL9KlixJPEbNk2Tt2tviTYy1rFM8H4cffY5+HTx4kPYFhWtWDz5481XHRpBabD9gVTHDdYVXA956NESzuHhTH62adkjfttI333yTwD2ImXhIeKXf2q37oDLG46L2x9++/1Dq1auX2tkqzk/L/3gUG+FjQl53Ycjzp578/bXOwoXX+Yl+FS1alJw9Lmt0I+EjJt1v07tOcXksbvbu3Rvz8lfgFM0uS7/99htpuQiclcVMp06dsMSCDt+8a8dXSbly5YpTktHtlFBPM/HEvX79+tHBOIjwQQsCPL8Ch28EuNu/du3a9E7v3tLUhXsUCW9+rLlSpUpUuXJlx4sFzN7njy3jMC8B3tOMn4CLvcTB8wcXpF27dtH27dtpx44dNH3TGUorByiqI5/2aCIdGjaMUqZMaV4oBlv+/3Ztp8FWWL/4AQMG0IIFC4RyVCgxM2HCBDp4IVLRF18oiiY0Jm/evCa0WhyTX3jhBZo9ezYtWrRI6t69O10MifsYd/vUD6Qkr1Yj3vuqZs2adAPiUZzgaWhJmjRpqE6dOo4XF8OTjZ8PSUkbNmwgfv217nSC9q3YyyRNmzaNfqhSRUPL7JF1vnz57OGowV7OWnpI3rp1q1S1alWDLfmveGGeZrp//z59nacQjXiSJsGX/T9z8U4tAokfnZB4gzajDr2HBLT08/bt244nnvgx4MaNGzteZcqUUe1JMaO7b7Vkp2beZqhT3PvMvTbLli0jHlLn4aSRI0fq2htj5WGm/fv3U5Eqr+H/EDW/WC7yql48vcTrckU/qm10OyWMmOFuq6FjF6ESuqg4ap7mhbfOnj2rZpZe52WG/3i8dkqjG4xuJDRyS/VsUaeUIbWymLl79y6leqki/h9RVhX8TrVw6tdShw4dHPkY3U4JsdEk/6KFkPG7XinOgBdRwwECIAACViOQIUMGq7kktD+fffYZ8fYkIhxCiBneKA2HfgSyZ8+uX2EoCQRAAAR0JFAyZyLnS9TqaINdijp5I4nMa3CJcBguZvjRRuxWrG9VyJYtm74FojQQAAEQ0IkA2jedQP9bTKKhoykkJETfQp2UZriY4W4qHPoS4I0EcYAACICAFQnwBqk49CPQPSyV/P333+tXoIuSDBUzW7ZsoYXrz2CylovgaHWad0jGAQIgAAJWJMDLJuDQl8Cg0X/It27d0rfQeKUZKmbQKxMvGjp9xCQ5nUCjGBAAAd0JoH3THbmjwJ9++smYgv8t1TAxs3LlSlq7Nxi9MgaEP23atAaUiiJBAARAQHsCWuxnpb3V5i9h/OzN8qVLlwxzxBAxI8syffnll4Y5bfeCAwMD7Y4A/oMACFiUAK/CjMMYAsOeb8dh1GGImFm6dCltOXIfvTIGRR17vxgEHsWCAAhoTiBVqlSal4ECnBMYO3OjfP78eecXNT6ru5jhXpmvvvpKY7eQvTsCvEEeDhAAARCwIgG0b8ZG1ajeGd3FzJIlS2j78YfolTGwviVNmtTA0lE0CIAACGhHAO2bdmyV5PzLnC2G9M7oLmaMUm1KgmCXNIkTC7VZul2ww08QAAEdCKB90wGyhyKGDx/uIYX6l3UVM/wEE+bKqB9Eb3OM3uXU2/uQHgRAAAREJ4D2zfgI8dyZy5cv62qIrmLmm2++0dU5FOacAM9bwgECIAACIAACWhHQe1Vg3cTM5s2bsa6MVrXGy3wjIyO9vAPJQQAEQMAcBCIiIsxhqMWt/P63lfLNmzd181I3MTNixAjdnEJB7gmEh4e7T4CrIAACIGBSAmjfxAmcnqsCJw4NDVXkudJ0zjI7cuQI/b3hLMY2nMEx4Nz9+/dJhCW//alTBmAzrEj+pQlWyvCDkzJOnOrZs2fKE5so5YMHD0xkrbVN7T1mPt3s3Zv0WMgwsZJn8rmBUJLOVVjGjh1Lk11dxHndCfAwkz/xVMNgf+uUGjaYJQ9+OsPoeJmBFeqUsihFD8NY9amfaP+U0UAqLQmklQPk8bNmSX379tWyGEfemg8z8YzmyX/uQq+M5qFUXsDDhw+VJ0ZKEAABEDARAbRvYgWLh5r06AXUXMz8/PPPYpGFNYRuWFQCEAABqxJA+yZWZE/fTCYvWLBAc6M0FTOskIeN+we9MpqH0bsC7t27590NSA0CIAACJiHAcwJxiEVgzJgxmhukqZiZNm2a5g6gAO8J3Llzx/ubcAcIgAAImIAA2jfxgrT1aIi8detWTQ3TTMxERUXRuHHjNDUemftGQM9n/32zEHeBAAiAgG8EgoODfbsRd2lKQOvHtDUTMytWrKAjlwlDTJpWD98yv3btmm834i4QAAEQEJzA9evXBbfQnubNWnpI0y0ONBMz6JURt8LqvWeGuCRgGQiAgNUIvH1Bv1VnrcZOa39+/fVXzYrQRMycPXuWFm0MQq+MZmHzL+MLFy74lwHuBgEQAAEBCfBDJ93DUuH/HgFjwyb9M2UKPX36VBPrNBEzEydO1MRYZKoOAR7+w8JS6rBELiAAAuIQ4B/SOMQlsP9BWnnhwoWaGKi6mGHVFTF1libGIlP1CJw/f169zJATCIAACAhA4PTp0wJYARPcEZgwYYK7yz5fU13MsOoa8SQNuvl8Dok+Nx4/flyfglAKCIAACOhEAO2aTqD9KGb17uvyiRMn/MjB+a2qi5lJkyY5LwlnhSJw+PBhoeyBMSAAAiDgLwG0a/4S1Of+yZPV361RVTFz5swZWrnzKnpl9KkPfpVy8OBBv+7HzSAAAiAgGgG0a6JFxLk9Ub/PUX0isKpiZurUqc4tx1nhCOzdu1c4m2AQCIAACPhK4Pbt23TyRhL8mPYVoI738VSUf/75R9USVRMz/HTM9OnTVTUOmWlHgDf/wuJS2vFFziAAAvoS2LVrl74FojS/CEx5/pi2modqYmblypV0/l5qqGI1o6NxXtu3b9e4BGQPAiAAAvoQ2LZtmz4FoRRVCCzefF7VFYFVEzPYVFKV+OqayebNm3UtD4WBAAiAgFYEtmzZolXWyFcjAmqO5qgiZniX0jnLj6BXRqOAa5Xthg0btMoa+YIACICAbgQeP35Ma/cG4/8g3YirU9CMGTNIltUJmypiZu7cuep4hlx0JbDnTBjmzehKHIWBAAhoQQC9zFpQ1T5PXo1erekOqoiZmTNnau81StCEwOrVqzXJF5mCAAiAgF4EeM4mDnMSUEs/+C1mTp06RZsP31Onn8icsTC11cuWLTO1/TAeBEAABNCOmbcOdJ21UpU1Z/wWM7NmYR8m81YjoplLDspa7WJqZi6wHQRAwBwEjh07RseuBuAHtTnClcDKopFJ5eXLlyc47+0Jv8QMT9yZM2eOt2UivWAE1q5dK5hFMAcEQAAElBH4+++/lSVEKmEJzJ4922/b/BIzvEjR8WuJoIj9DoOxGfz555/GGoDSQQAEQMBHAgsWLPDxTtwmCoHZyw7LDx488Mscv8TMvHnz/CocN4tBYMK8bXJYWJgYxsAKEAABEFBIgHfJ3n06FD+oFfISOZm/PWw+i5moqCj6448/RGYD27wggAl0XsBCUhAAASEIqDE8IYQjMIL87RzxWczwc/3YvsA6NXDVqlXWcQaegAAI2IIA2i3rhHnRxiCZF+D19fBZzKBXxlfk4t1XKFuENHToUPEMg0UgAAIg4IbAxIkT3VzFJbMR8GeoyScxExkZSQsXLjQbJ9jrhECIFCXxEFOWLFmcXMUpEAABEBCXQJkyZWj1H6MlcS2EZd4Q8Gcyt09iZuvWrXQxJBCTrryJkqBpjyyZSIUKFRLUOpgFAiAAAu4JNG3alCaMeB+Cxj0mU1zlnbTv3r3rk60+iZm//vrLp8Jwk1gEpo3pK9WuXVsso2ANCIAACHhJoHfv3vRhp5oQNF5yEzH54sWLfTLLazHDC+X5M67lk5W4SXUCH3WuI3Xv3l31fJEhCIAACBhBYNy4cVSvfDYIGiPgq1imr1NYvBYze/bsobO3U2CIScXg6Z1V3XJZpZ9++knvYlEeCIAACGhGIEmSJMRzLvJlCoOg0Yyy9hkvWHNSfvTokdcFeS1mFi1a5HUhuEEcArkzPJb4STT+4uMAARAAASsRyJw5M2EahPkj6ssu6F6LmX/++cf8pGzswfz58ylr1qw2JgDXQQAErEygXLly9PuP/dA7Y+Ig+6IzvBIzQUFBtP/cMwwxmbSS/Dykq1S1alWTWg+zQQAEQEAZgffee4+6tC4PQaMMl3CpWi3eSBEREV7Z5ZWYWbJkiVeZI7E4BFrVyif1799fHINgCQiAAAhoSGDChAlU/BUJgkZDxlpl3Sg8hbxt2zavsvdKzCxdutSrzJFYDAK50j+Sfv/9d5LwvRYjILACBEBAcwKpU6emuXPnal4OCtCGgLd6Q7GY4e25l227hCEmbeKmaa4sZDJlyqRpGcgcBEAABEQjULp0aRo7tBt6Z0QLjAJ7vN38WLGYWbt2rYLikUQ0AgO6NZTq1asnmlmwBwRAAAR0IdC3b19qUPElCBpdaKtXyIHzEfL58+cVZ6hYzKxYsUJxpkgoBgEeLx4+fLgYxsAKEAABEDCAQEBAAHHvNA7zEfBGdygWM748920+dNayeNq0aZQyZUprOQVvQAAEQMBLAjly5KDpP/VH74yX3IxO7o3uUCRmjh8/jlV/jY6ql+V/8l4jqXLlyl7eheQgAAIgYE0CXbt2pYaVskPQmCi8vBpweHi4IosViRnMl1HEUphEBbKES8OGDRPGHhgCAiAAAkYT4Kc5J02aZLQZKN9LAtu3b1d0hyIxs379ekWZIZEYBMaOHUv8WCIOEAABEACB/wjkzZuXvv+8E3pn/kMi/Ls1a9YostGjmHn69Ckt3nwej2Qrwml8onb1CklNmzY13hBYAAIgAAICEvj444+xmJ6AcXFlktKRIY9iZufOna7KwHkBCYwZM0ZAq2ASCIAACIhBIFmyZPTjjz+KYQys8Ehg8+F78r179zym8yhmMMTkkaEwCYb0bSvlzp1bGHtgCAiAAAiISKBhw4bEW7yIaBtsSkhg06ZNCU/GOwMxEw+IWT/mSPtAGjhwoFnNh90gAAIgoCuBUaNG6VoeCvOdwIYNGzze7FbMPHnyhNbuDcZ8GY8YjU8wePBgSpMmjfGGwAIQAAEQMAGBQoUK0YedaqJ3xgSx2rhxo0cr3YqZHTt2eMwACYwnUOSlKOndd9813hBYAAIgAAImIsA/AnGIT2D36VD5zp07bg11K2aUjFO5zR0XdSHAX8gkSZLoUhYKAQEQAAGrEHjxxRfp8/eboXfGBAHdsmWLWyvdihlPN7vNGRd1IcD7L3Xs2FGXslAICIAACFiNAD+qjUN8Ap70iEsxw0sIr9x5FfNlBI/xp59+SokSJRLcSpgHAiAAAmISyJIlC/H2L2JaB6uiCfgsZvbv3x+dB/4KSiB/5qfS66+/Lqh1MAsEQAAEzEGgX79+5jDUxlZuOXJffvz4sUsCLntmlO6H4DJnXNCcQO/evTFXRnPKKAAEQMDqBF5++WV6t00F9M4IHug9e/a4tBBixiUa8S906dJFfCNhIQiAAAiYgECfPn1MYKW9TXTXyeJSzGAbA7ErTb8u9aS0adOKbSSsAwEQAAGTEChTpgzVKp0JvTMCx8udLnEqZi5fvkxBd1Ji8q/AQe3Ro4fA1sE0EAABEDAfge7du5vPaBtZHLBjt0tvnYqZ3btd3+AyJ1zQjQD/eihSpIhu5aEgEAABELADgTZt2lCIFIXeGUGDPf9RoHz+/Hmn1kHMOMUi9snOnTuLbSCsAwEQAAETEkiRIgV99XY9E1puH5NddbY4FTN79+61DxkTetquXTsTWg2TQQAEQEB8Am+99Zb4RtrYQldPNCUQM7Is09wdF22MSmzXO7csKwUGBoptJKwDARAAAZMSqFChAvHK6iY13/Jm79u3z6mPCcRMUFAQpZUDMPnXKS7jT2KRPONjAAtAAASsTQDtrLjx5Z0JuNMl/pFAzGDl3/iIxPk8IfljqV49jOeKExFYAgIgYEUCr732mhXdsoxP3OkS/0ggZg4cOBA/DT4LQuBom0ZY8VeQWMAMEAAB6xLInz8/VSyYCkNNgobYmU5JIGYOHTokqPkwix8bxAECIAACIKA9gdatW2tfCErwicDBgwcT3AcxkwCJmCd47YNatWqJaRysAgEQAAGLEWjZsqXFPLKOO4cPH07gTBwxc/v2bTp3N1XCmTUJbsMJvQn0aVEeQ0x6Q0d5IAACtiXAC5MWeQkL6IlYATyKmaNHj4poN2x6TqBp06bgAAIgAAIgoCOBhg0b6lgailJK4PTNZHJISEic5HF6ZiBm4rAR6kP9+vWFsgfGgAAIgIDVCaDdFTfC8fVKHDFz7NgxcS23sWU1S70gZciQwcYE4DoIgAAI6E+gatWq+heKEhUROH78eJx0iSMiImJOQMzEoBDqTe3atSl2nIQyzg9jrOiTHzhc3soLRIGVSzxxLoBTHBxOPzx79szpeZxMSCBZsmTUrHouafHm85hLmhCPoWe4Zyb29z1Oz0yGE6cNNQ6FOyeAp5icc8FZEAABENCaANpfrQn7lv/Jkyfj3Jj4+eE4cefOHeLtteNcxQchCFSuXJmi4ySEQSoYwb8OreaTClicZiE93yYGrJyiiXMSdSoODo8fUKc8IiKuUw4x89UUz4mRQlcCp06ditMuxvTM8AUc4hFoUPElibs6cYAACIAACOhPoFSpUvoXihI9EjgVnFQODQ2NSRcjZk6fxhBTDBWB3mACmkDBgCkgAAK2I8A9WE2r5cTWBgJG/syZMzFWxYiZs2fPxpzEG3EI8BATDhAAARAAAeMIVKpUybjCUbJLAhAzLtGId6F8+fLiGQWLQAAEQMBGBCpUqGAjb83jauxOmJieGWdbapvHJWtaWvjFSCljxozWdA5egQAIgIBJCJQtW9YkltrLzNi6JUbMfHb6hr0omMDb0qVLm8BKmAgCIAAC1iaQOXNmyvtCKObNCBbmc+fOxVjkEDO8x0Gj8BR4LDsGixhvSpYsKYYhsAIEQAAEbE6gRIkSNicgnvvnz5+PMcohZmKfiLmCN4YTKFasmOE2wAAQAAEQAAGi4sWLA4NgBI5fSyRHRkY6rHKImYsXLwpmIsxhArwFPQ4QAAEQAAHjCRQuXNh4I2BBAgLXrl1znHOImUuXLiVIgBPGE8iVK5fxRsACEAABEAABKlSoECgISCBavzjEzOXLlwU00d4mlc2bTAoIcITH3iDgPQiAAAgIQCBfvnwCWAET4hOI1i+O/y2vXLkS/zo+G0wgT548BluA4kEABEAABKIJBAYGUunAEDzRFA1EkL/R+sUhZq5evSqIWTAjmkDu3Lmj3+IvCIAACICAAATSYOhfgCjENSFavzjETPQEmrhJ8MlIAjly5DCyeJQNAiAAAiAQjwDa5XhABPgYR8wcvSJhjRkBghLbhOzZs8f+iPcgAAIgAAIGE0C7bHAAnBR//fp1x9mABw8eOLmMU0YTePHFF402AeWDAAiAAAjEIoB2ORYMQd7euPH/3QsCgoODBTEJZsQmkDVr1tgf8R4EQAAEQMBgAmiXDQ6Ak+KjR5YgZpzAEeFUpkyZRDADNoAACIAACPxLAO2ymFXhyZMnFHDr1i0xrbO5ValTp7Y5AbgPAiAAAmIRyJgxo1gGwRoHAdYxAbdv3wYOwQjkTPcQaxkIFhOYAwIgAALp0qUDBAEJsI6BmBEwMLw4Ew4QAAEQAAGxCKBtFise0dY4xMzdu3ejP+OvIARSpUoliCUwAwRAAARAIJoAhv+jSYj1l3VMwL1798SyCtZQypQpQQEEQAAEQEAwAsmTJxfMIpjDBCBmBK0HSZMmFdQymAUCIAAC9iUgSZjOKGL079+/TwEhISEi2mZrm5IkSWJr/+E8CIAACIAACCglADGjlJTO6QICHFtm6VwqigMBEAABEAAB8xHgnQwCHj58aD7LYTEIgAAIgAAIgAAIPCcAMSNoNZBl7PspaGhgFgiAAAiAgGAEHj16RAHn7qbC/5yCBQbmgAAIgAAIgAAIKCPgEDPKkiIVCIAACIAACIAACIhHwLE3k3hmwaKoqChAAAEQAAEQAAEQUEAAYkYBJCOSREZGGlEsygQBEAABEAAB0xEIDQ0lPAMsYNgiIiIEtAomgQAIgAAIgIB4BJ4+fQoxI15YiMLDw0U0CzaBAAiAgK0JoNdczPCXCXsGMSNiaCBmRIwKbAIBELA7AbTNYtaA+Y8CZQwzCRibsLAwAa2CSSAAAiBgbwJom8WNP8SMgLHhyUw4QAAEQAAExCKAtlmseMS2BmImNg1B3vNjZjhAAARAAATEIoC2Wax4xLYGYiY2DUHeXwwJxKrMgsQCZoAACIBANIHHjx9Hv8VfwQhAzAgWkGhzsHBeNAn8BQEQAAExCGBjZjHi4MwKiBlnVAQ4hy+NAEGACSAAAiAQiwDvzoxDTAIQM2LGhUJCQgS1DGaBAAiAgD0JoF0WN+4QM4LG5v79+4JaBrNAAARAwJ4E0C6LG3eIGUFjc/fuXUEtg1kgAAIgYE8CaJfFjTvEjKCxwZdG0MDALBAAAdsSQLssbughZgSNze3btwW1DGaBAAiAgD0JoF0WN+4QM4LG5tatW4JaBrNAAARAwJ4E0C6LG3eIGUFjExwcLKhlMAsEQAAE7Eng5s2b9nTcBF5DzAgaJIgZQQMDs0AABGxL4MaNG7b1XWTHjyYKlyBmBI3Q9evXBbUMZoEACICA/QjwquxBd1JiqxkBQ98pVShBzAgYGDbp2rVrgloGs0AABEDAfgQwX0bcmD9MlgxiRtTwHLsaID8/RDUPdoEACICArQhcvXrVVv6aydlkEDNih+vOnTtiGwjrQAAEQMAmBK5cuWITT83nZooUKdAzI3LYLl26JLJ5sA0EQAAEbEMA7bG4oYaYETc2Dsvw5RE8QDAPBEDANgTQHosb6lSpUlFA7gyPJXFNtLdlFy5csDcAeA8CIAACghBAeyxIIJyY4RAzqVOndnIJp0QgcP78eRHMgA0gAAIgYHsCaI/FrQKsYwICAwPFtdDmlgUFBdmcANwHARAAATEITDiBLWbEiERCK9KkSQMxkxCLOGcgZsSJBSwBARCwLwHeLbtoZFKslSFoFUibNi0F8D84xCRw8EKkHBkZKaZxsAoEQAAEbELgzJkzNvHUnG46xEy6dOnMab1NrMakM5sEGm6CAAgIS+D06dPC2gbDiFjHBKRPnx4sBCZw6tQpga2DaSAAAiBgfQJoh8WOMeuYgAwZMohtpc2tO3HihM0JwH0QAAEQMJbAyZMnjTUApbslwDomIGPGjG4T4aKxBCBmjOWP0kEABEDg+PHjgCAwAdYxAS+88ILAJsK0Y8eOAQIIgAAIgIBBBMLDw+nA+Qg8yWQQfyXFso4JyJQpk5K0SGMQgY0H72D3bIPYo1gQAAEQwBCT+HUAYkb8GDksPHfunEkshZkgAAIgYC0Chw8ftpZDFvSGF/8NyJIliwVds5ZLBw8etJZD8AYEQAAETEIA7a/YgSqQJdyxvySeZhI7Tg7r9u/fbwIrYSIIgAAIWI8A2l+xYxrdIRMgSRLlyxSGnbMFjteePXsEtg6mgQAIgIA1CURFRdGKHVcw+Vfg8GbLls1hXQD/++KLLwpsKkybtfUcPZ8FDBAgAAIgAAI6EsDKvzrC9rEoiBkfwRlxW1o5QMaMeiPIo0wQAAE7E9i9e7ed3TeF7y+99JLDzsShoaGUNWvW5x+OmsJwuxq5ceNGypkzp6Xc57qHwzOBiIgIAivPnDgFOCnjxKmePXumPLFNU+7YsYPetqnvZnE7c+bMju994hQpUljuP0mzBMEbO3ft2kU9evTw5hah0/J/Olz3cHgmkDhxYrDyjMnRoKFOeQbF4pgPrlc43BPYvn27+wS4ajiB3LlzO9pHx5yZV155xXCDYIB7Aps3b3afAFdBAARAAARUI3Djxg06cpkwWVE1otpk9PLLLzsyhpjRhq/quZ64nli+cOGC6vkiQxAAARAAgYQEeGgfh/gEojtjHGImR44c4lsMC2n9+vWgAAIgAAIgoAMBtLc6QPaziBxpH0jRQ8sOMRP9aJOf+eJ2jQmsXbtW4xKQPQiAAAiAABNAeyt+PYj9UIxDzAQEBFCJHAFYOE/w2D1Zs554ESccIAACIAAC2hE4c+YM8dC+diUgZzUI5MqVKyYbh5jhTzwjGIfYBOY/CpT37t0rtpGwDgRAAARMTmDlypUm98Ae5sfWLTFiJk+ePPbw3uReLl++3OQewHwQAAEQEJsA2lmx4xNtXWzdEiNm8ubNG30dfwUmsHTpUoGtg2kgAAIgYG4Cjx49okUbgzDEZIIwxtYtMWImX758JjAdJm479kC+cuUKQIAACIAACGhAYNWqVRrkiiy1IBBbt8SImfz582tRFvLUgMA///yjQa7IEgRAAARAYNGiRYBgEgKxn8SOETOxH3EyiR+2NXPhwoW29R2OgwAIgIBWBMLDw2n0Xzu0yh75qkigatG0cZ7AjhEzvE9H6dxJ4lxUsVxkpSKB5dsvyzdv3lQxR2QFAiAAAiDAa8uklQMwX8YEVaFgwYJxrIwRM3y2UKFCcS7ig7gE/vrrL3GNg2UgAAIgYEICf/zxDMdsSwAAQABJREFUhwmttqfJbsVM4cKF7UnFhF7PmzfPhFbDZBAAARAQk0BYWBhNnL8dvTJihieBVfH1SpyemfgXE9yNE8IQWL37unzp0iVh7IEhIAACIGBmAsuWLTOz+bazvUiRInF8jiNmihYtGuciPohNYM6cOWIbCOtAAARAwCQEZs2aZRJLYSYTiL1gHn+OI2YKFCjA53CYhMCMGTNMYinMBAEQAAFxCdy+fZvmrTyGISZxQxTHssqF00iJEiWKcy6OmEmSJAmVz58CTzTFQSTuhwPnI+Rdu3aJayAsAwEQAAETEEAvtwmCFMvEYsWKxfr0/7dxxAyfKl68eIJEOCEugalTp4prHCwDARAAARMQQDtqgiDFMrFEiRKxPv3/bQIxU7JkyQSJcEJcAj/P2CDzXiI4QAAEQAAEvCewZ88e2nXqCYaYvEdn2B0QM4ah17ZgPKatLV/kDgIgYF0CkyZNsq5zFvXMWadLgp6ZUqVKWdR967r1yy+/WNc5eAYCIAACGhG4f/8+jZu1Cb0yGvHVItuCWZ9JGTJkSJB1AjHDiQpli8Ak4ASoxD2x48QjeevWreIaCMtAAARAQEACmCsjYFA8mFS6dGmnKRKIGU5VpkwZp4lxUlwCP/74o7jGwTIQAAEQEIxAREQEjR07VjCrYI4nAq70iVMxU7ZsWU/54bpgBGYvOyyfPXtWMKtgDgiAAAiISYD3tzt5IwmGmMQMj0urXOkTp2KmXLlyLjPCBXEJfP/99+IaB8tAAARAQBACsizTd999J4g1MMMbAl6JGVeJvSkQafUnwI9pX716Vf+CUSIIgAAImIjA8uXLiecamshkmPqcQLGXyenkX4bjtGcmMDCQyuRJiknAJqw+I0aMMKHVMBkEQAAE9CMwdOhQ/QpDSaoRqFChgsu8nIoZTl2xYkWXN+GCuARGTV4lX758WVwDYRkIgAAIGEhg6dKltOnQXfTKGBgDX4t2p0tciplKlSr5Wh7uM5jAkCFDDLYAxYMACICAeASioqJo0KBB4hkGixQRcKdLXIqZypUrK8ocicQjwItAnTx5UjzDYBEIgAAIGEhg7ty5tPPkY/TKGBgDf4p2t3ekSzFTsGBBmpD8MebN+EPewHs/+eQTA0tH0SAAAiAgFoGwsDD64osvxDIK1igm0Kjyy1LixIldpncpZiRJonXVsHieS3KCX/hj9Ql5w4YNglsJ80AABEBAHwK8sCjWldGHtRalVK1a1W22LsUM31WtWjW3N+Oi2AT69OlDkZGRYhsJ60AABEBAYwLXr1+nj76eiuEljTlrmb0nPQIxoyV9g/PefTpU/vXXXw22AsWDAAiAgLEEBgwYYKwBKN1vAu4m/3LmbsWMqz0Q/LYKGehGoN2AHyk4OFi38lAQCIAACIhEYNOmTTT5z13olREpKF7a8mrJjFKqVKnc3uVWzCRJkoSa18iNScBuEYp9Ma0cIPft21dsI2EdCIAACGhAIDw8nHr06KFBzshSTwI1atTwWJxbMcN3v/rqqx4zQQKxCUxduEdetWqV2EbCOhAAARBQmQCviH7gfAR6ZVTmqnd2NWvW9FikRzGjJBOPpSCB4QS6d+9Ojx49MtwOGAACIAACehA4fvw4fTJ8FoSMHrA1LsPTk0xcvEcxg00nNY6STtnzI4kDBw7UqTQUAwIgAALGEeCnON955x3jDEDJqhGoWy6rx/kyXJhHMZMoUSJqW7cg5s2oFhrjMho9ZbW8fv164wxAySAAAiCgA4GRI0di/yUdOOtRRO3atRUV41HMcC4YalLE0hSJOnfuTCEhIaawFUaCAAiAgLcEDh06RH2HTMPwkrfgBE1fp04dRZYpEjNKlZGiEpHIUAKnbyaTe/XqZagNKBwEQAAEtCDAWxa88cYbWmSNPA0iUKFCBUUlKxIz+fLlo4JZn2GoSRFS8RPxmgtz5swR31BYCAIgAAJeEPj4449p79mn6JXxgpnISV9rUMTtfkyxbVckZviG+vXrx74P701OoHWXr+QzZ86Y3AuYDwIgAAL/J7Bo0SIaNXkVhIyFKoQ3ukOxmGnQoIGFEMEVJtC2bVsKDQ0FDBAAARAwNYGgoCCq3LG/qX2A8QkJeKM7FIsZzJtJCNrsZ3adeiK/9957ZncD9oMACNiYwOPHj6lVq1bEq53bGIPlXC+VK7GUM2dOxX4pFjNp0qShxlVewbwZxWjNkfC3BTvl0aNHm8NYWAkCIAACsQjIskxvv/028aa6sU7jrQUINGrUyCsvFIsZzrVx48ZeZY7E5iDQ64uJ8tKlS81hLKwEARAAgX8JfPnllzRr6SEIGQvWCG/1hldipkmTJhZEBpeYQN22feV9+/YBBgiAAAiYgsDUqVPpi1HzIWRMES3vjAyRoiQlWxjEztUrMcOPaJfMmQhDTbEJWug9i9Vz585ZyCO4AgIgYEUCy5cvp9ffHwEhY8XgPvepd/NylCRJEq+880rMcM7NmjXzqgAkNg+BC/fTyPXq1aMbN26Yx2hYCgIgYCsC27Zto9qt+0DIWDjqvugMiBkLVwhfXDt2NcAhaO7cuePL7bgHBEAABDQjsH//fspX9y3N8kfGYhBo2LCh14Z4LWYqVapEOdI+wFCT16jNc8OeM2EyL1Z0//598xgNS0EABCxN4PDhwzSzbmM8gm3pKBM1rZZTSpcunddeei1mAgICMNTkNWbz3bDt2ANHDw0EjfliB4tBwGoEWMh8WbsejXiSBsNLVgtuPH9atGgR74yyj16LGc6WFyjCYX0CW47cl3nHUgw5WT/W8BAERCXAQ0vTatan+Y8CIWREDZKKdukqZmrVqkX86JSK9iMrQQlwD03NmjUxKVjQ+MAsELAyge3bt1P2qu3QI2PlIMfyrVbpTNKLL74Y64zytz71zCRNmpT6t6msvBSkNDUBnkNTvXp1unDhgqn9gPEgAALmIbBq1SoqU/ttGdsUmCdm/lraunVrn7PwScxwaf4U6rO1uNEwAkcuk1ylShXisWscIAACIKAlgdmzZ9OrLT7AsJKWkAXM258pLD6LGW+25haQGUzygcC5u6nkAhXayBs2bPDhbtwCAiAAAp4JjBw5ktq8+zWEjGdUlkpRrVg6rzaWjO+8z2ImefLk9E6rcpg3E5+oDT5XbvSePHPmTBt4ChdBAAT0IhAREUE9evSg3oMnQ8joBV2gctq2beuXNT6LGS61ffv2fhWOm81LoF23ofKgQYOId63FAQIgAAL+EOAlIHhjwR9/X4cGxR+QJr63Xbt2flnvl5jhoaajicLRO+NXCMx7M2/y1rJlS3rw4IF5nYDlIAAChhI4fvw4VahQgRZvPg8hY2gkjCucn2LKkSOHXwb4JWaSJUtGEzrU9csA3GxuAvNXHZfLly9PR48eNbcjsB4EQEB3AnPnzqU8ZVrIhy+hi1d3+AIV2KFDB7+t8UvMcOkdO3b02whkYG4Chy5GyfnKtZKnTJlibkdgPQiAgC4EQkND6b333qNW7wxGb4wuxMUuxN8hJvbObzFTo0YNypcpDENNYtcVXax7o9d3Ms+junfvni7loRAQAAHzEThw4ACVLVuWfp6xAULGfOFT3eLWtfNLmTNn9jtfv8UM79X0xhtv+G0IMrAGgRmLD8jFixen1atXW8MheAECIKAKAX5a6dtvv6XCldvL+889g5BRhar5M3nzzTdVccJvMcNWdOrUSRVjkIk1CJy9nUKu0byXzN3ImBxsjZjCCxDwhwDPqatcuTL1G/o7RIw/IC12L2+L1Lx5c1W8UkXMFCxYkF4tmRFDTaqExDqZcDdy0aJFacmSJdZxCp6AAAgoJvD06VP68ssviefU8ca1im9EQlsQGPxWXeI169Q4VBEzbEjnzp3VsAd5WIzAmVvJ5Xrt+slt2rShK1euWMw7uAMCIOCKwNq1a4mHnD//fh5EjCtINj+vpm5QTcy89tprNg8L3HdHYPayw3KmfLXkUaNG0bNnz9wlxTUQAAETE7h8+bJjQdVqTXvikWsTx1Fr08vmTSbxsh5qHaqJmcDAQOrRoSqGmtSKjEXz+WDQJEwQtmhs4Za9CfDj1kOGDKHM+WvL/CCAvWnAe08E3n33XU9JvLqumpjhUrt27epV4UhsTwIHL0TKDV77WG7UqBHx6p84QAAEzEuAtzSZNWsW8dzJT4bPgogxbyh1tVytp5iijZauX78e/d7lX36kLnHixC6vx75Qq1YtOnA+AhU6NhS8d0uga9uKUv/+/UmNtQbcFmTSi8HBwZQlSxaTWq+f2d60U/pZJV5J0fupSZL/HelbtmyhYcOG0e7ToWjzxQu1sBa90aSENHbsWFXtk6IrtrtcufswRYoU7pLEXPvll1+oS78fUbFjiOCNUgJff9RG+vjjjyl9+vRKb7FFuhs3blDWrFlt4as/TnrTTvlTjtnvZdHHh9IfqM783blzJ33xxRe0bNsltPXOAOGcWwJ7106TqlSp4jaNtxdVFzO8rkiyLGVRwb2NBNLHEBjWv73Up08fypgxY8w5O7+BmFEWfYgZZZz8ETNbt2519MT8s+kc2nhluJEqHoHy+VNIhw4dinfW/4+qzplhc3gi8Eed6/jff+m/b8jBpAR4N+7U2SvJH330EV26dMmkXsBsELAGgaioKPrnn3+oWrVqVK7uOzKEjDXiapQX77//viZFq94zw1YeO3aM8pZtaSvlnifjEylDhgwU+xUWFkYXL150vHi9FU0iaINM325RxtFTU6FCBRt4m9BF9MwkZOLsDHpmnFFJeE5pz8zDhw/p999/J57bcOQyof1KiBJnvCTAK/6munWIUqVK5eWdnpNrIma42Dp16lh6PLVasXQS/1KpXr06Va1a1TEk4q6RYGHDIu/w4cPEXWz8+nD/WWoUngKNhOd66khRvXh6qWfPno41LNRaNVJh0YYmg5hRhh9iRhknd+0U58BbD/z666/0w9Q1aJuUIUUqhQQ+69lUGj16tMLU3iXTTMwsXryY6rfvb7kvQ8+O1aSvv/6asmfPnoC0p0Yi/g08+XrXrl00b948+vPPPynoTkrL8YrvsxqflycNlTZ1bu1YCqBIkSJqZCl0HhAzysIDMaOMk7N26vHjx/THH3/Q5MmTaf3+W2iHlKFEKi8JXDu+SsqVK5eXdylLrpmY4XHWAgUK0NErkmW+GJNGfiB98MEHLsk6ayRcJo53gXlt2rSJZsyYQRPmbbMMs3huqv6R9wR7++23iVegTps2rer5i5AhxIyyKEDMKOMU3U4lSpSINm/eTNOnT6df525Fm6MMH1L5SKBDw6LSwoULfbzb822aiRkuety4cdT1458t8SV5s2lJiX+5uDuiGwl/Hnnk/KPHqpnf4UvPu29wKCLQqVkp6Y033qAGDRpQkiRJFN1jhkQQM8qiBDGjjBMPdc+ZM4fmz59PJ28kQfuiDBtS+Ulg9+opjqkZfmbj8nZNxcyjR49ozUuFLDEvZMuSXySeB+TuUEvMRJfBvTULFiwgHtbCQoTRVDz/HZjyoRTatjl16NDB8QRGQIDqD+15NkLFFBAzymBCzLjmFBQU5BhG4iFtLHDnmhOuaEOA55ju3r1bm8z/zVXTVj516tS05/03NXVAr8xTpkypV1Ex5fB/wu3bt6cjR47QlNF9pAnJH+OR9xg6rt+MeJJG/mn6erlig64yz23iScO8g2+02HR9J66AgHUIcA8M/xAqVaoUZS/aUO47ZJoMIWOd+JrJk379+mlurqY9M2w9/6pMn6u66bsyB33QQho5cqTbgET/Z+nvMJOrQu7evUufffYZ8X/UrtLgvGsCRxOFS983qUi8JxQPRZll+wT0zLiOaewrdu+Z4eHp9evX04oVKxyv0zeToZ2IXUHw3hAChbJFSGfOnCGeo6XlobmYYeO7detGY2duNP0X69LhZVK+fPlcxkMtMcP7ZfGjx66W9d+xY4fjSZ59QeGmZ+oSpg4XKhdO4xg65OFDfrxe6ZYdOpgWpwiImTg4XH6wm5gJDw8n3lZg3bp1DhGzdm8w2gOXtQMXjCIweVRvSauF8mL7pIuYYVX2SvHGpv+i8ZMzPPvf1eRSf8UMixR+Kif6F1XVommlwYMHU5MmTWLHzPGeG7IhQ4bQoNF/mJ5rAucMOlGvfDaJ1w3iV+XKlTVZ2MkX1yBmlFGzupjhOYjcRvDmjvxaufMqvvvKqgZSGUSgdGCItPfCBV1+KOoiZpgjz/2YsfiA6b98fd+pK40fP95p1fBXzLz44ot0/l7qBIzcDXHxL7PXX3+djl9LlOA+p0bipGICPGmNRU30y9naQooz8yMhxIwyeFYSM7wGFU/aZfHC33H+u+PEI3zHlVUFpBKEwOhBb0s8NUKPQzcxwyveFqzY1hJfxjGD35EGDhyYID7+iBm+NzJNYZd81v45RmrcuHGCMvkEb+7ZpUsXmrX0kMv7nd6Ik14RyPtCqFS+fHniF2+tUKZMGUqTJo1XefiSGGJGGTUzi5lr167Rvn37aM+ePY5Xg52HqXtYKnyflYUeqQQlEHZjj6TX+l+6iRlm3axZM1qw5qQlvqDjhr0nxZ+h7Y+YYT7du3d3Obn3w041pYkTJ3Iyl8f3339PH375myX4unRSsAvFXiapePHiVKJECceL3+fIkYMkSb0HzyBmlAXdDGKGJ+nytia8ZQA/pch/bzx/7X+QFt9bZWFGKpMQGNqvnTRs2DDdrNVVzPBz5iVqvGGZL+3XH7WRvvnmm5j/uPwVM9wYt2jRghZvPp+AkafVh6NrzJIlS6heu34J7o++jr/6EOAhKl4Bm18FCxZ0/OXJ477sKQUxoyxmoogZns92/vx5On36NPF8wdh/z97GXmzKoolUZifw6MoOKWPGjLq5oauYYa8aNmxIizYGWeY/W151dtq0acTr0PgrZpgPj5XPmjWLuBdm3b6bcokcAVK7du0c60Uo/bXPY+zX67e1xGKFzMRKR/7MT6XcuXOTs1emTJmcugox4xRLgpN6iZnIyEjiYSEWLBeeT26M//dUcFLLtG8JIOMECCggMLh3K2nEiBEKUqqXRHcxw//RlqrZyVJf9nL5kku8Um+ePHkckdFqnRlvwn7w4EHaVLMxxt29gSZA2jJ5kkpt2rShr776KsYaiJkYFG7f6CFmTp48SROr1CRemNGtMbgIAjYm8ODSNsnVjzOtsGi6ArAzoytWrEgta+ZVb0KBs0J0PrfnTJics2RTeerUqTqX7Lq4kiVLUvX1S4l3mHadCldEI8CrZn/00UeimQV7/iXAQ4btl/0NHiAAAi4IfNWnte5Chk3RXcxwobzEthWPt3qPknnOy5UrV4Rwj5cxf3kdGl4hgqHACF5XaNWqVZbd/VsBAlMk4R9kvGmeKYyFkSCgM4H+/fvrXOL/izNEzJQrV47a1y9sycbgr3Wn5Uz5asljxoyJmUOjVWQfP35MM2fOpN9//90xbu+snLJly9KeNVMtydqZv2Y9Vzp3EmnlypUQMiYJYLVq1WjdXz/ie2WSeMFMfQh8O6CDrpN+Y3ul+5yZ6ML5scT85VtbetyZf2nz0FOxYsWi3Vbtb1hYmGMDuYMXImMYskDk8jJkyJCgnGXLllGdNh/FpE2QACcMI5An4xOJF0V7+eWXndqAOTNOsSQ4qcecmfiF8uT/jj2H43sVHww+245AiBQlJbu+z7AfZIb0zHCU+T/4d1qVs/Qvm61HQ2QWbKNGjaKoqChVK/fcuXMptpDhzOevOi6XLl2azp07l6AsXnBvxs8fW5p3AqdNcoIfp3clZEzigm3N7Ny5Mw3p2xbfK9vWADgeTWBsvw6GCRm2wTAxw4Xz3kJ2OD4YNEnmR9Jv3bqlmrs3b950mhc/Fvrmm28SPz4a/+jatSt90as5Gt74YAz8vGTmtxLPbcJhXgJDhw6ldvUK4Xtl3hDCcj8J5M7wWHrnnXf8zMW/2w0VM/woc78u9WzRCPBCeLz8/d69e/2L2L9384qzro71+2/J/Gvf2fHdd99Z7mkyZ36a4RwLS34MG4e5CQQEBNCMGTOIV4M2tyewHgR8I8AbIqdIkcK3m1W6y1Axwz4MGjRIJVfEz+bMreRysWod5UWLFvltbK1atShfpjCXjacrMcMN7+zZs6nwi5Eu7/XbOGTgkUCNEhmkb7/91mM6JDAHAd5/Zv78+eYwFlaCgIoESuZMZHivDLtjuJjJkiULfffpG7b6j7VhhwF+r0mTNGlSmj59ussq+fTpU5fX0qdPj4bXJR19LvBTaEmSJNGnMJSiCwEeLhz/TXdbtWW6gEUhQhPgH2UiLBRruJjhKPGGjbnSP7JVI/D6+yNkfqTan6NmzZq0bPYIp9z4mruDH9nmzTLdpcE1bQgwd96nCYf1CPTp04fqlsuK75X1QguPnBCoUzaL1LJlSydX9D8lhJhJlSqVbSYDxw5xhx7fyn/88UfsU16/b9WqFV05ukL64M1XpeKvSFKdNCHS5+83U9TtxyvNNqj4Ehper6n7fgNvfdG7d2/fM8CdQhPgYdzffvtNaBthHAioRYCf1BXlMGydmfgA+Okbfqx49+lQ263ZwItvNWrUKD4SXT4HBQVR9qINbcdcF7hOCtm69Fepdu3aTq64PoV1ZlyziX3FiHVmYpcf+z3PBfxi1Hx8r2JDwXtLEejcsqw0Z86cGJ+MbqeE6JlhGokSJaIffvghBoyd3tRu3Ufevn27IS7zE2U/ftUFvTM60G9aLafXQkYHs1CEBgQGDhxI/LiqBlkjSxAQgsDw4cOFsCPaCGHEDBvEv1jtul7DnsZt6dSpU9Fx0fVv3759iWek61qoDQuz05N7NgxvHJd56PzLL7+Mcw4fQMAqBIb1by/lyJFDKHeEGWaKpnL27Fl6uVgjW3bP8uPSO3fuJL23Tmf2y5cvJ+4hio4D/qpLoFbpTNK2bdt8ytTo7lufjDbgJpGGmdj9Z8+eEU/05oUsDcCBIkFAEwK8/crJkycpderUcfI3up0SqmeGyeTNm5e+/LClLXsJjl9LJPOE3vDw8DiVRI8PPGenbd2CtuSuB98BAwboUQzKEIgAP3rPk+xxgICVCPDCq/GFjAj+Cdczw1AePnxIBQsWpHN3U9nyFw0/mTRp0iTV64csy8TrzyRPntxp3hcvXqSsBevakrlTICqdLJpdlngIkZ908eUw+hePLzYbcY9oPTPMgNuypJnL4DtlRIVAmaoTqF0ms7RlyxaSpIS/e41up3xrXVVHFDfDNGnS0MiRI+OetNGnsTM3ylOmTFHV44ULF1KOrFlJSl9crlevHk2YMCHB/k08Bjrxu14Ja6mqltgvs169evksZOxHy1oec1vW640a+E5ZK6y29Wbs2LFOhYwIQITsmWEw3ItQo0YNWrPnhm1/1ZzcuUBytweT0gp04sQJyl26eQKOb7coI/GeMrFXouXdvXki9sqdVxOkV1oe0sUlEHp9t5QuXbq4J734ZPQvHi9MNTSpiD0zDIR/yZav1wXfJ0NrBwr3l0Dfd+pK48ePd5mN0e2UkD0zTIu7sdyBc0nUQhdee+01evz4sd8erVixwmkevy/aJ7du3ZoiIiJirvNQCG+TECJF4ddkDBXf3/ToUNUvIeN7ybhTFAJVq1alglmf4fskSkBgh9cE2qd+IA0bNszr+/S8QVgxwxCKFStGn/ZoYttG4OCFSLl///5+14erV6+6zGPBmpPyrFmz4lx/5ZVXaPOMEXHO4YNvBN555x3fbsRdliHAP8xef/11y/gDR+xHoMX3I4j39BP5EFrMMLivv/6a+FEwkSFqaduPv6+TV61a5VcRBQoUcHs/bxTGw3qxjzZt2tDHXRvYlntsFr6+50ftq1Sp4uvtuM9CBLiXFQcImJEA7zX21ltvCW+68GKGJ9D99NNPwoPU0sBu3bo5norwtQxPy+cfuUzylStXEmTP+27w7PUEF3BCEYEOHToIO1lOkQNIpBqBokWLUqlcifFdUo0oMtKLwK+//mqKdkx4McMB43kdrWvnt21DcPpmMvmLL77wue7ylgXvta/slh8vVhj/SJo0Kf3555+UL1OY23vj34fP/yfQrl07oACBGAK8hhQOEDATga/6tJaKFCliCpNNIWaYpN0nA4+ctELeu3evz5WKFzoqmzeZS1HC82ScHVmfP869ePFiZ5dwzg0BXlumePHiblLgkt0ING/e3G4uw18TE+BhcjNtwWIaMcNroIz/prvL/4xNXGcUm96zZ0/iR6d9ObJkyUIbNmygyoXTJGBYtWhaKXfu3C6zLVmyJK39c0yC+1zegAvUrFkzUACBOATKli1LOdM9xPcoDhV8EJUAr0WWMmVKUc1LYJdpxAxb3rt3b+L/eBN4YZMTW47clydPnuyzty+88AKtX7/eIQp5UhdnxHsG8YJ6zlZ0jF1Q48aNaebYAbZlH5uFkvfMCwcIxCbA37H69evHPoX3ICAkgW7tKkl169YV0jZXRgm7aJ4rgw8dOkQFK7aN++iNq8QWPM/P+/9+5iT5swhbNBZ+gsmTiIlOG/13xIgR9NHXU23LP5qDx7/3j0jJkiXzmExJAqMXo1JiowhpRF00LzabOXPmUOsuX+H7ExsK3gtFoHRgiLT5+HHKmDGjV3YZ3U6ZqmeGyfKKuEP7tbNtD8H8R4HykCFDvKpkrhJ7K2Q4n4EDBxJPCnOVJ84TNaueSzUhA57WIlCrVi1rOQRvLEfgy59/9lrIiADBdGKGofGkJDs/5jj816VyUFCQYfVn+PDh9FnPphA0LiJQvXp1F1dw2u4EeEJ9yZyJ8N2xe0UQ1P/29QtL7du3F9Q692aZUsxw9/3UqVPde2bxq59//rmhHo4ePZq+HdABjbKTKGChPCdQcCqGAG9vgAMERCNwNFG4xGvKmPUwpZhh2BUrVqQvejW37X+m0//ZL+/bt8/QeserM2NScMIQlClTJuFJnAGBfwlUrlwZLEBAOAJHx39N2bJlE84upQaZVsywgzx3xM5dtnqtAfDs2TOXj4S/++67tHPlbxJPGlNa6aycjusjr1qNAwRcEShfvryrSzgPAoYQaFOngCm2LHAHx9RiJkWKFDRt2jR3/ln62t8bzso7duzQzMfDhw9TtWrVKCqwiHwuTV5q0KAB8aPh8fdxqlGjBq3ev5/qlc9me0HDE9RxgIA7AgULFnR3GddAQFcCy5OGShMnTtS1TC0KM7WYYSA83PT1R21s+5+oWk82xa9cT58+pUaNGtHavcGOx0hfjkos/7PpnPzmByNlXn/g4sWLcW556aWXHGvYfP95J9vGgoEULlw4Dhd8AIH4BBIlSkSvlsxo6+9JfCb4bByB0F+/oxdffNE4A1Qq2fRihjl89dVXVKFASls2Dos2Bmkyd2bRokUUdCel0/Uwlm27JFd73lV+6dKlONWQG2neQ+rYtnlS+fwpbBkPTzuUxwGGD7YlUKxYMdv6DsfFIfBGkxJSx44dxTHID0ssIWZ4Q8QZM2b4gcHct/JCdmofYWFhbrM88yCt3KJFC+KFyuIfpUuXJt5HavSgt20naNxtCxGfEz7bl0ChQoXs6zw8F4JArvSPTP30UnyIlhAz7BRv6vfT1+/a7j9P9n3W0kOqrzuTPXt2ztrtsePEI9mViEySJAl99tlndPXYSqlt3YKWj0ujyi9Laxb8IPH+OzhAwBMB9OB5IoTrWhPg+Y+8xY1VDsuIGQ5I//79qX6FFy3/H6ezyvfz81Ub1Txq1qxJhbJFeGQ5adIkt8VyTwXvur1x0VipTJ6kHvNzm5lgFyckfyx92qOJFLRvkbRu3Tpq0qSJ19tDCOYSzNGJQN68eXUqCcWAQEICH3WuI/GcSCsdptubyRN8npiaolBtSisHOJ3v4el+M19/GrxXCgwMVM2F6dOn02vdv/HIMVnoaUUiJTIyknhTy1GjRtHmw/c85quaIypn9Fbz0o5xZn66i4c4tT6M3vNEa//Uyt8MezNF+8oT7CldMdN+B6L9wF/zESiRI0Da//zpU7V3xDa6nbJUzwxXqxw5ctC6KUPNV8NUsHjmzJkq5PJfFm+99RZ93LWBIqHy312u3/EE4bZt29KuXbto79ppUr8u9SR+LND1HWJcCZGipC6ty0tLZw2XIm4fkObNm0fNmjXTRciIQQBWqE2AVzHPme6h8HVfbb+Rn/EEZs+erbqQMd4rIsuJGYbaoUMH4i3MRQCspw1arBXwww8/0LD+7V2y/OS9Ri6vufOdJwmPGzeOGt8KonV//Sj17FhNGphSnMad9/7iFaa3L58opQ85QbNmzaLWrVtTqlSp3LmFayCgmIAVHodV7CwSCkHg5yFdJauuUG65YaboGvPo0SPioB2+JNuqK/fAhhkSr72j9rFnzx4aMGAArdx5NYbnaw2KSLxHVvr06b0uztmQQEREhKPXZsWKFbRy5UraduxBTFleF+DlDbXLZJYqVapE0S+RlvU2uvvWS5SGJXdWpwwzRkHBPGeBF75UkBRJQMBvAs1r5JaWL19OAQHa9GEY3U5ZVsxw5A8cOECFK7e3VWPxwZuvSp4m5frzrQgPD6fjx4879vDIkiWLz1kp+Y/n4cOHjrKOHTtG0S8u+8yt5D7HlHtceAXWokWLUpEiRRx/8+fPT/z0laiH0Y2EqFzi26WkTsW/x8jPnTp1ot8W7PS5LhtpO8o2FwF+DPvgwYOUOXNmzQw3up1KrJlnAmRcqlQp+vWHj6R3+o6xTYMxduZG+cGoB6pOBI4dSp7wWrJkydinNHvPexxVqFDB8fpfe2cCX9OZ/vHnbSIUSaOoNWisjVDUkiaWMjoaLTJaoqilHaKKUtONTk1LS1rTZfi3Si2xRWqLIWpJRBJSpJjYSktNzXxGV2tFlTr/PLelWW7uPffec+55zzm/8/lczj3nXZ73+7y553fetWgmhQ8tce7cOWKxc+HChWL/81sHx3P24S6iI8KrXrGi2eMcBDQh4E2LpiYZIxHbEVi+fLmuQkYGoJYWMwz4ySefpEezs8Wi1L22ETTz58+nCRMmyFC/itmQmZnpGHvy+eef06VLl6hevXrE+zoNGzbMo64q3pOLPzJ1BRUrKL6AgAoCWs48VJEdgtiUAG8x89J991m+9JbuZrrhPX6D551q//XvX2whaBpVuyyOHz9OPGNClmPUqFH0btK2MvnzYNvXXntNuhlCPJ08KyuLVq5cSXv27KGCggLifah4Q0neMdwfK7ka3XwrSx1yZ4fZupl45e4Jrywo82/CXXlxHwTcEfhT10Ziw4YNuo2TKZq/0b9T+owEKlpCCc65y2H16tUSWOIfE45/f6syb948/2SmIpd169a5FDKcxLTZ65TY2Fg6f/68ihT9E4R3DecutZgHRynvLMpQco9cVFgQ895Ur7+3Xglv00eZPn26f4xBLpYjINPLhuXgokDUrOZVwct16DXgVzbEthAzDJ13M05dNNU2AybenzrVMZ5EhgrHokDNsTH3P8rzzz+vJqjLMDxI+cyZMy7DuLuZnZ1NTTs8onx6/IrLN+dnXl2obN682V1yuA8CpQjIPOi8lLG4YDoCq1atoqpVq5rObm8Nto2YYUDx8fE0aXQvWwiafYUbQU4tFDQyHKGhoarN4K6o06dPqw5/I+CJEycoISGBeM8b5bZIpVKdKOV4pXDq2LGjY5wOT/tWe3B3xfDhw9UGJ/7RwAECnhKwyxuzp1wQ3ncCy9970bLryZRFx1ZihiEkJiYSbwpYFhArXeeum4MHDxpeJB7g2z34vGrmP/zwg0c2z5o1i+pGxir/WJypFF1XKOx6oJKx91ul34hXFV575+zZs6rSPXr0KB35X4DLFpmiCdnp7adouXHuG4Hr16/7lgBig4ATAs88fr/w5GXMSRKmvGQ7MRMYGEgpKSmO/kRTesxDo5944gnypFXCw+RVBecxS5MXJ6kKy4Fq1qypOmxqaiqNfG6WW+HBC/DxytBqDp5p5cmhNl1P0kRY6xPgweU4QEBLAn9sX0u88847WiZpmrRsJ2bYM7ztOT8E7XDkHDyn8KwJow/elPFA9jLRtlF5ly00i//xrPBkW/pFixapLtq6rC+V77//3m346OhoahNezqWdNxKZ+8ZYwTObcICApwQUey1O7ikehPeQQJM7rgiedWnXsVi2FDNcR/gBlLZshqoHlod1Srrgz762WPnkk08Mt6tdu3bEg4HTV70tBj3YUrQII9E45LxD4PDeTCx2RowY4ZGdPB3Qk0PN2zCPZeBBvTHNQ8qsHy3rCbF784di7NixnmSPsCAAAiCgCwF+QddzhV9djNYw0UAe7KjmUBtOTVqyhOGpwK8/ly8mvZHstptCFpu9tYMHP+fm5koxur1bt27EH2eHp/WMfUj5y5wlVepapxahIiskhNTkweNgeEbTtqwskZGRQadOnXJ01/HWB7169aJ/FW6UyYeatEoZ4uEF7ib0Rz4emiVlcDNxunr1qpQMYZT5CKxZ8IqIK9ymxcj6b/TvlC0WzXNVNbmpd/DgwbRgTZ7lBc1DHesL3sAxICDAFRK/3OM/Ol7F19eDHwj9+vWjlM1HXPqP11zIycmhunXr+pql3+MbvRiV3wvsZYZa1Skvs/c42ttvv02jJ73vst56nCgi2I7AzJeGismTJxtebqN/p2zbzXTD86Jwrx5e/r9r62pldincCGv2/zfs+Ep55plnzF6MYvZz/zD3Ey+d/by4u/4tpXzIs6gSXxws9u3bZ0ohU6yw+AICIAACRQiM6BclhZApYpJhp5bfm0kN2QoVKjgGBN8VFSU+Ox1o6TelN+Z+rMxq1MhSYz1Y0PCsLf4UDvB1bOXw008/OdacyalVS00VQBgQ8DsBDAD2O3JLZcgzl7ZItNK70XAhZn7zAA+cSktLo0PtYkXkL0GWFjQ8lXlVrVrikUceMbr+aZ4/z4TyZDaU5gYgQRAAARDQmQBPQMhds0aq/fd0LrLb5G3fzVSUEG8aeHHDoqKXLHve67FJypYtWyxbPhQMBGQngJYZ2T0kp33xlS+IjRs3SjGZQyZCEDMlvHHfffcRjwwvcdmSX7v0GaNs377dkmVDoUAABEDAigReWJ9KDRs2tGLRfCoTxIwTfLyi67uv/NkWgube2JHKzp07nVDAJRAAAT0JoGVGT7rWTHtzykzBW7PgKE0AYqY0E8eV5557jp4bGWsLQdO2+3AImjLqAS6DAAiAgAwEkt79i+jdu7cMpkhpA8SMC7fwOhBD+7SxjaDZsGGDCxq4BQIgoCUBtMxoSdPaac14YZAYOXKktQvpY+kgZlwA5GXtFy9eTL06NbCFoLm/3zPKzJkzXRDBLRAAARAAAX8SmDC8u5gyZYo/szRlXhAzbtwWFBREawqnwHVuWcUWgmbsX+cqPGX73LlzbsjgNgiAgC8E0DLjCz17xB3Su7WYPXu2PQrrYykhZlQArFy5MvFUOLU7KatIUuogy9IOKK1atSLMdJLaTTDO5AQgZkzuQJ3N79MlXCxZsoS4hwCHewKg5J6RIwRvPMjrstxV65otWmiOfROk8Eynp556ii5cuKCSEoKBAAiAAAj4SuAP99whVq9eTdwzgEMdAYgZdZwcoerUqUNbt26l8Nsv2ULQcKHfWrBViYiIoJSUFA9IISgIgIA7AmiZcUfInvfvvauy4MkYlSpVsicAL0sNMeMhOF6siAUNr8LoYVTTBj/xQ0UlbthfFV5QcP/+/aYtBwwHAZkIQMzI5A05bGl9Z6DYvHkzhYaGymGQiayAmPHCWdxSMWXLx3Qo4GfbCBrGtHn3/5SI6Hjlscceo5MnT3pBDlFAAARAAAScEYisq4j09HSqXr26s9u45oYAxIwbQGXdbt26NV3LsGfXy4erdiu1I3ooo0ePpv/+979lIcJ1EAABFwTQMuMCjs1uNat5VWRkZFDt2rVtVnLtigsx4wPLDh060KfpC23VOlMU19sL05Xqjbspo0aNQktNUTA4BwEVBCBmVECyQZDG1X9yCJl69erZoLT6FRFixke2MTExtGvTPNsKGsb3btI2R0vNoEGDMKbGx/qE6PYhADFjH1+XVdKGVQscQiY8PLysILiukgDEjEpQroJ16dKFcjd+YGtBw3wWrMlzjKnp2LEjJSUlUUFBgStsuAcCIAACtiXAs2K3bdtGjRs3ti0DLQsOMaMRza5du1LO+vdsL2gYZ8beb5UBo15TAqq2UuLj4yk5ORlr1WhUz5CMdQigZcY6vvS0JDeETJMmTTyNivBlEICYKQOMN5d56vKODe9D0BSBt/if+5W+j09Rytdoq3Tu3JleffVVys3NpWvXrhUJZc7T7777jtLS0oj3TYmNjaW8vDxzFgRWG0IAYsYQ7IZnyl1LmZmZ1LRpU8NtsZIBgVYqjAxl4S6nXVsXiHb3P67IYI9MNmzN+1qhvKVE0ws/hccfosNEdHQ08ScqKoqqVKkik7k3bTlz5gwdOXLk5ufw4cOO8y/PVFK6F4biDx+fXLLPYoq/lhj/+kIAYsYXeuaM27TGzyIrI4t4vTIc2hII1DY5pMYEeMzInqylIqBbf4r8JQiipoxqsTH3Pwrl8vT2X6e4hxduFcHNriU/PMpf7/1JfvzxR8rPz6cTJ04U+9Q4fpJSfgxR2hVayZ/fj9Krc+Lh9DsdnLkngPrinpGVQvA6MlnpWVS/fn0rFUuaskDM6OSK9u3bU/7OdVS/Rw/x1fkQCBoVnD87HajQ6S+Jsgo/tOlmjKuFZ/xGw2swhISEOJb55s0/ebnvG5+i369fv04sTi5evOj4v+R5ye//PheslCvMo+1vn5sZO05Cin918Y3zxQECIAACJQnc0zBIZBeuHF+rVq2St/BdIwIQMxqBdJbM3XffTdnZ2dTk/vvF59+Wh6BxBknlNd74kr75vjA0f7Q6eHhTsFaJEcSMZihtkRBaZmzhZurUIlRkffwx8WbFOPQjgAHA+rF1pMxdJjt27KBWDQIwMFhn1kYnDzFjtAfMlT/EjLn85Y21PQvHBfLKvhAy3tDzLA7EjGe8vAodFhZGOTk51LllFQgarwiaIxLEjDn8JIuVEDOyeEIfOwb2bCF4tmNwsHatv/pYao1UIWb85Mdq1aoRK/Q+XcIhaPzE3N/Z4OHkb+Lmzg/1xdz+c2X900O7iY8++ogqVKjgKhjuaUgAYkZDmO6S4kGq69evpxH9oiBo3MEy4X20zJjQaQaaDDFjIHwds058cbCYM2cOBQQE6JgLki5JAGKmJBGdv5crV86x1P8rEx6BoNGZtb+Th5jxN3Fz5wcxY27/ObN++XsvipdfftnZLVzTmQDEjM6AnSUvhKDXX3+dFr0zEYLGGSCTXoOYManjDDIbYsYg8Dpluz11lhg+fLhOqSNZdwQgZtwR0vF+QkICbVvzLgSNjoz9mTTEjD9pmz8viBnz+5BL0KjaZXF010rRo0cPaxTIpKWAmDHYcbynD/8hNK7+E0SNwb7wNXuIGV8J2is+xIz5/R0dESx27dpFvKYYDmMJQMwYy9+RO/8h7N6927G4kgTmwAQvCeDh5CU4m0ZDfTG34wc80Fzwoqh16tQxd0EsYj3EjCSO5GWut2/fTo/1aoUWGkl84qkZaJnxlJi9w0PMmNf/U57uK1avXu3YTsW8pbCW5RAzEvmzYsWKlJKSQjNeGARBI5Ff1JoCMaOWFMIxAYgZc9aDlA9eEjNmzNB981tz0jHOaogZ49g7zZlnOk2ZMoU2LJ0OQeOUkLwXIWbk9Y2MlkHMyOiVsm26s8qPYn/mYjFkyJCyA+GOYQQgZgxD7zrjhx9+2DEw+K5a1yBqXKOS5i7EjDSuMIUhEDOmcJPDSN6KJi8vj6KiosxjtM0shZiR2OE8MJj/gB6MqQdBI7GfbpgGMXODBP5XQwD1RQ0l48OMGhAjsrKyMNDXeFe4tABixiUe42/ybqubNm2il8b0gaAx3h0uLcCbtks8uFmCAOpLCSASfn1/+mixcOFC7LEkoW9KmgQxU5KIhN8DAwPpzTffpHVJ0yBoJPTPDZPwpn2DBP5XQwBiRg0lY8KE335JfJq+UPDCpjjMQQBixhx+cljZv39/OrE3VbRqEABRI6HfIGYkdIrEJkHMyOmcP7avJfbu3UsxMTFyGgirnBKAmHGKRd6LERERtGfPHhrSuzUEjWRugpiRzCGSmwMxI5+DuDs/IyODatasKZ9xsMglAYgZl3jkvBkcHOxYj+aDxDEQNBK5CGJGImeYwBTUF3mcdF5cFx8nvyG4O5+79XGYjwDEjPl8dtPicePG0b+2LxHNal6FqLlJxbgTPJyMY2/GnNEyI4fXYpqHiB8PbaG4uDg5DIIVXhGAmPEKmzyROnToQPv27aP4HhEQNAa7BWLGYAeYLHuIGeMd9pc/9xA7d+6k8PBw442BBT4RgJjxCZ8ckatUqUJr164lnkYoh0X2tAIPJ3v63dtSo754S873eNytxKusz5o1i8qXL+97gkjBcAIQM4a7QBsDeBuE8ePH08Gc5SKyrgJRow1Wj1JBy4xHuGwfGPXFmCrQtXU1UXAknXiVdRzWIQAxYx1fOkrStm1bR7fTyP73QtD42bd4OPkZuMmzQ8uM/x04dWJ/kZ2dTQ0aNPB/5shRVwIQM7riNSZxnu2UlJREaxe+Krg51Rgr7JcrxIz9fO5LiSFmfKHnWdymNX4Wuzd/KKZNm4bZSp6hM01oiBnTuMpzQwcMGEBXjmVSz+gwCBrP8XkcA2LGY2S2joD64h/3j+gXJfLz86lz587+yRC5GEIAYsYQ7P7LNCwsjNLT0wlr0ujPHA8n/RlbKQe0zOjrzfjKFxyDfBcvXky33XabvpkhdcMJQMwY7gL9DeDBwbwmzVf5G0S3NtXRSqMTcogZncBaNFmIGf0cO7BnC/HBoXwM8tUPsXQpQ8xI5xL9DGrSpAnx4LfZ0xIgaHTADDGjA1QLJ4n6or1zX6h4UaxZ8IpYvXo11ahRQ/sMkKK0BCBmpHWNPoYFBATQxIkT6dSBNNGjQ22IGg0x401bQ5g2SAr1RVsnD+3TRrz4WT49+uij2iaM1ExBAGLGFG7S3sjGjRtTZmYmLXpnIgSNRnjxpq0RSJskg/qijaMbVbssNqfMFCtWrKA77rhDm0SRiukIQMyYzmXaGcxjaRISEuiHE9vFoAdbQtT4iBYPJx8B2iw6WmZ8dzhvR3D48GHq3bu374khBVMTgJgxtfu0Mb527dq0atUq2vLR3wWvx6BNqvZLBWLGfj73pcSoL97Ti2pWSeRnLXVsRxASEuJ9QohpGQIQM5Zxpe8F6dWrF/Fbzsvj/gRB4wVOPJy8gGbjKGiZ8c75773+pMjLy6P27dt7lwBiWZIAxIwl3ep9oSpVqkSJiYl0Ym+qeCCqDkSNByghZjyAhaCE+uJZJRgWd4/4/nimmDBhAlbx9QydLUJDzNjCzZ4XMiIiwjFAmKc5NqxaAFGjAiEeTiogIchNAmiZuYnC5ck9DYPEzrQ5Ijk5merUqeMyLG7alwDEjH19r6rkPM3x6NGj9LfxD0PQuCEGMeMGEG4XI4D6UgxHqS+8r9z700eL/fv3U7du3UrdxwUQKEoAYqYoDZw7JVC5cmWaPn06/efgRhHfIwKixiklIrxplwEGl50SQH1xisVxcexj9wn6dy6NHz+eypUrV3ZA3AGB3whAzKAqqCbQqFEjSk1NpZz174l2jStA1JQghzftEkDw1SUB1JfSeGLvrSs+++QjMXfuXKwZUxoPrrggADHjAg5uOSfQvXt34qbfpHf/IurfdgGi5jdMeDg5ry+46pwA6svvXFqEkfg4+Q2xbds2atWq1e83cAYCKglAzKgEhWDFCfC2CCNHjqQvvviCpk7sD0FTiAcPp+J1BN9cE0A3E9GcCpfEB4ljHAvfxcXFuQaGuyDgggDEjAs4uOWeQHBwME2bNo2++2KbGD2wk61FDcSM+/qCEL8TsHt9mfJ0XzH05GEaN24cxsX8Xi1w5iUBiBkvwSFacQJ169al+fPn0xd5a8Qj3ZvaUtTY/eFUvEbgmzsCdq0vTz7aUXz7eYaYMWMGhYaGusOE+yCgigDEjCpMCKSWQGRkJK1fv572bJkvurWpbitRY9eHk9q6gXDFCditm4lnQh7/dK1YsGABhYWFFYeBbyDgIwGIGR8BIrpzAp06daKdO3cS72bbtlF5W4gaiBnndQFXnROwS335Y/taYm/GIsEzIZs3b+4cBq6CgI8EIGZ8BIjorgnwbrb5+fm06sMpgmcsuA5t7rt2eTiZ20vyWG/1+tKpRajIXPsPkZWVRdHR0fKAhyWWJAAxY0m3ylWoW265hQYNGkRHjhyh5PcnieZ1rltS1Fj94SRXrTK/NVbtZoppHiK2fPR3sXv3bnrggQfM7yiUwBQEAq9du6bKULXhVCVm0UBXr161aMm0K9bgwYNpwIABtHTZMvHmm29S/lfXFe1SNzYl/hvR4++EH3p6pGssLX1yNxMnM9mqxltd7r5dTJo0iT6JjSUhBP3yyy9qokkfxmp+0gu40b9TaJnRy7NIt0wCgYGBNHDgQDpw4AClLpoqoiOCLdFSwz/gOEDAbgQe6lhfZP/z/8SOHTuoZ8+eDiFjNwYor/EECp8rgW6t4BYHNeHcJmSTAGDl3tFcp4KCgig+Pt7xSU9PFzNnzqR1WV+atqWmatWquvydsEhCnVJXp8zE6fbbby8s1DfuCyZpiGFx94hnn32WtrZpI6mFvpuFZ596hkb/TqFlRr2vEFJHArxFwqZNm+jY7lVi1IAYUzZxNGvWTEdCSNpqBJo2bWrKIr345EPi9GdbRHJyMrWxsJAxpXNsbDTEjI2dL2PRW7ZsSQsXLqSzJ7PF9OcHmmrvJ56OjgME1BLo2LGj2qCGh+NB+3NmPCWufPOpeOutt6hBgwaG2wQDQKAoAaFmRP3ly5fp1ltvLRoP504I3BgoZqambifF8MsltXXqypUrtHLlSpo9ezZl5Z+RtgvqnoZB4tChQ7qw+/rrr6lmzZq6pG2lRNXWKVnKXFBQQAFVW0lbp5lTny7hYsyYMY6xMDwr0W6H2eqUkf4x+nfKfrXTSG8jb48JlC9fnngG1K5du+hgznJp938aNWqUx2VDBHsTqFixIo0f9gfpulQ3Bl0Wk0b3EqcOpAnu+n3ooYfIjkLG3rXTfKVHy4yGPkPLjHqYvrzxnD17lpYsWUJz586lvSd+NvzNtmHVAsG7h+vVemn0G496rxob0pc6ZZTlJ0+epNoRPQyvw1x+3n4kISGB+vXrp1tdNoqzt/masU55W1Zf4xn9O4WWGV89iPh+J1ClShXHTrvcrfNp+kLDBwzzejl6CRm/w0WGfiVw55130l/HxhnWOjOnwiXxfEJPwRvE8vYjQ4YMQV32aw1AZloRQMuMViQL00HLjHqYWr/xXLhwgVasWEG8iZ0/x9YMeKC5WLt2rfqCexHS6DceL0w2JIrWdcpfheCxM61bt6YDpwpXR/TT0atTA/HEE09QXFwccVcuDucEzFqnnJdG36tG/05BzGjoX4gZ9TD1/JHgbROSkpJo6dKl9OWZSro9INo3udWx70xoaKj6gnsR0ugfCS9MNiSKnnVK7wIdPnyYqrfrQ7cpt+hWX3lvtKFDhzoWrORdqzFRwb1XzVyn3JdO2xBG/06hm0lbfyI1CQhERERQYmIinTp1iniju8f7ttO8Gf9PXRuJzMxM0lvISIATJviBAO8m/e2eVGpZT9tlpA8F/CyeHtrNsWv1sWPHaPLkycRCBgcIWI0AxIzVPIry3CQQEBDg2Ohu2bJl9PO3e8WKOZMFL71+M4AXJw1CLwreLDMtLY1+XcHVi0QQBQScEIiMjKR9+/bR38Y/7FMd5aQH9mwh0pbNEJE/HKM5c+Y4dq3GdhtOoOOSZQigm0lDV6KbST1MI5tvT3B5lJsAAABmSURBVJ8+TSkpKbR8+XLKOXhOVbP+/e1qCt56gQdIBgcHqy+oBiGNbr7VoAh+ScLIOqV1AXmW07x58xz19Mj/AlTV0Z7RYYL3POvbty/xIPmyDvxOlUWm9HUr1anSpdP2itG/U/8Pa9Xu3ghSiE0AAAAASUVORK5CYII=;" parent="1" vertex="1">
          <mxGeometry x="232.29" y="1030" width="82.19" height="80" as="geometry" />
        </mxCell>
        <mxCell id="gacuUQbHWUEoRXtIffdP-2" value="" style="ellipse;whiteSpace=wrap;html=1;sketch=1;curveFitting=1;jiggle=2;fillColor=none;" vertex="1" parent="1">
          <mxGeometry x="846.2" y="790" width="223.8" height="230" as="geometry" />
        </mxCell>
        <mxCell id="gacuUQbHWUEoRXtIffdP-4" style="edgeStyle=none;curved=1;rounded=0;orthogonalLoop=1;jettySize=auto;html=1;fontSize=12;startSize=8;endSize=8;sketch=1;curveFitting=1;jiggle=2;" edge="1" parent="1" source="gacuUQbHWUEoRXtIffdP-3">
          <mxGeometry relative="1" as="geometry">
            <mxPoint x="500" y="890" as="targetPoint" />
            <Array as="points">
              <mxPoint x="450" y="990" />
            </Array>
          </mxGeometry>
        </mxCell>
        <mxCell id="532qYWjqUrfOTz7QYn1a-26" style="edgeStyle=orthogonalEdgeStyle;rounded=0;orthogonalLoop=1;jettySize=auto;html=1;entryX=0.5;entryY=1;entryDx=0;entryDy=0;sketch=1;curveFitting=1;jiggle=2;curved=1;exitX=-0.015;exitY=0.464;exitDx=0;exitDy=0;exitPerimeter=0;" edge="1" parent="1" source="532qYWjqUrfOTz7QYn1a-3" target="532qYWjqUrfOTz7QYn1a-25">
          <mxGeometry relative="1" as="geometry" />
        </mxCell>
        <mxCell id="532qYWjqUrfOTz7QYn1a-27" style="edgeStyle=orthogonalEdgeStyle;rounded=0;orthogonalLoop=1;jettySize=auto;html=1;entryX=0.992;entryY=0.54;entryDx=0;entryDy=0;entryPerimeter=0;exitX=0.5;exitY=0;exitDx=0;exitDy=0;curved=1;sketch=1;curveFitting=1;jiggle=2;" edge="1" parent="1" source="gacuUQbHWUEoRXtIffdP-3" target="532qYWjqUrfOTz7QYn1a-3">
          <mxGeometry relative="1" as="geometry">
            <mxPoint x="209.99999999999955" y="820" as="targetPoint" />
          </mxGeometry>
        </mxCell>
        <mxCell id="gacuUQbHWUEoRXtIffdP-3" value="" style="ellipse;whiteSpace=wrap;html=1;sketch=1;curveFitting=1;jiggle=2;fillColor=none;" vertex="1" parent="1">
          <mxGeometry x="190" y="1010" width="180" height="190" as="geometry" />
        </mxCell>
        <mxCell id="532qYWjqUrfOTz7QYn1a-2" value="cloned user account" style="image;aspect=fixed;html=1;points=[];align=center;fontSize=12;image=img/lib/azure2/identity/Users.svg;" vertex="1" parent="1">
          <mxGeometry x="270" y="800" width="64" height="70" as="geometry" />
        </mxCell>
        <mxCell id="532qYWjqUrfOTz7QYn1a-3" value="application administrators" style="image;aspect=fixed;html=1;points=[];align=center;fontSize=12;image=img/lib/azure2/identity/Administrative_Units.svg;" vertex="1" parent="1">
          <mxGeometry x="110" y="826.14" width="90" height="90" as="geometry" />
        </mxCell>
        <mxCell id="532qYWjqUrfOTz7QYn1a-5" value="" style="image;aspect=fixed;html=1;points=[];align=center;fontSize=12;image=img/lib/azure2/identity/Enterprise_Applications.svg;" vertex="1" parent="1">
          <mxGeometry x="927.79" y="947" width="53" height="53" as="geometry" />
        </mxCell>
        <mxCell id="532qYWjqUrfOTz7QYn1a-9" value="" style="image;aspect=fixed;html=1;points=[];align=center;fontSize=12;image=img/lib/azure2/other/Azure_A.svg;" vertex="1" parent="1">
          <mxGeometry x="748" y="1127.94" width="44.61" height="42.06" as="geometry" />
        </mxCell>
        <mxCell id="532qYWjqUrfOTz7QYn1a-10" value="enumerate azure" style="edgeStyle=orthogonalEdgeStyle;rounded=0;orthogonalLoop=1;jettySize=auto;html=1;entryX=0.413;entryY=-0.008;entryDx=0;entryDy=0;entryPerimeter=0;exitX=0.877;exitY=0.998;exitDx=0;exitDy=0;exitPerimeter=0;curved=1;sketch=1;curveFitting=1;jiggle=2;" edge="1" parent="1" source="W6fyROgd7GxFVGnl5Oas-4" target="532qYWjqUrfOTz7QYn1a-9">
          <mxGeometry relative="1" as="geometry" />
        </mxCell>
        <mxCell id="532qYWjqUrfOTz7QYn1a-14" value="key vault" style="image;aspect=fixed;html=1;points=[];align=center;fontSize=12;image=img/lib/azure2/security/Key_Vaults.svg;" vertex="1" parent="1">
          <mxGeometry x="680" y="1160" width="68" height="68" as="geometry" />
        </mxCell>
        <mxCell id="532qYWjqUrfOTz7QYn1a-15" value="storage" style="image;aspect=fixed;html=1;points=[];align=center;fontSize=12;image=img/lib/azure2/storage/Storage_Accounts.svg;" vertex="1" parent="1">
          <mxGeometry x="705" y="1300" width="65" height="52" as="geometry" />
        </mxCell>
        <mxCell id="532qYWjqUrfOTz7QYn1a-18" value="function app" style="image;aspect=fixed;html=1;points=[];align=center;fontSize=12;image=img/lib/azure2/compute/Function_Apps.svg;" vertex="1" parent="1">
          <mxGeometry x="770" y="1211" width="66.5" height="58.68" as="geometry" />
        </mxCell>
        <mxCell id="532qYWjqUrfOTz7QYn1a-21" value="" style="shape=image;html=1;verticalAlign=top;verticalLabelPosition=bottom;labelBackgroundColor=#ffffff;imageAspect=0;aspect=fixed;image=https://icons.diagrams.net/icon-cache1/Kameleon_Free_Pack-2373/Hacker-1007.svg" vertex="1" parent="1">
          <mxGeometry x="544" y="1213.21" width="81.30434782608695" height="81.30434782608695" as="geometry" />
        </mxCell>
        <mxCell id="532qYWjqUrfOTz7QYn1a-22" value="Managed identity" style="image;aspect=fixed;html=1;points=[];align=center;fontSize=12;image=img/lib/azure2/identity/Entra_Managed_Identities.svg;" vertex="1" parent="1">
          <mxGeometry x="210" y="1110" width="56.25" height="50" as="geometry" />
        </mxCell>
        <mxCell id="532qYWjqUrfOTz7QYn1a-24" value="MFA Application" style="image;aspect=fixed;html=1;points=[];align=center;fontSize=12;image=img/lib/azure2/identity/Enterprise_Applications.svg;" vertex="1" parent="1">
          <mxGeometry x="-55.19" y="750" width="67" height="67" as="geometry" />
        </mxCell>
        <mxCell id="532qYWjqUrfOTz7QYn1a-25" value="privileged role administrator" style="text;html=1;align=center;verticalAlign=middle;whiteSpace=wrap;rounded=0;" vertex="1" parent="1">
          <mxGeometry x="-100" y="833" width="156.62" height="30" as="geometry" />
        </mxCell>
        <mxCell id="532qYWjqUrfOTz7QYn1a-28" style="edgeStyle=orthogonalEdgeStyle;rounded=0;orthogonalLoop=1;jettySize=auto;html=1;curved=1;sketch=1;curveFitting=1;jiggle=2;" edge="1" parent="1" source="gacuUQbHWUEoRXtIffdP-3">
          <mxGeometry relative="1" as="geometry">
            <mxPoint x="304" y="890" as="targetPoint" />
            <Array as="points">
              <mxPoint x="280" y="960" />
              <mxPoint x="304" y="960" />
            </Array>
          </mxGeometry>
        </mxCell>
        <mxCell id="532qYWjqUrfOTz7QYn1a-29" value="victim user" style="image;aspect=fixed;html=1;points=[];align=center;fontSize=12;image=img/lib/azure2/identity/Users.svg;" vertex="1" parent="1">
          <mxGeometry x="346" y="780" width="64" height="70" as="geometry" />
        </mxCell>
        <mxCell id="532qYWjqUrfOTz7QYn1a-30" value="" style="shape=image;html=1;verticalAlign=top;verticalLabelPosition=bottom;labelBackgroundColor=#ffffff;imageAspect=0;aspect=fixed;image=https://icons.diagrams.net/icon-cache1/Kameleon_Free_Pack-2373/Hacker-1007.svg" vertex="1" parent="1">
          <mxGeometry x="261.35" y="780" width="81.30434782608695" height="81.30434782608695" as="geometry" />
        </mxCell>
        <mxCell id="532qYWjqUrfOTz7QYn1a-33" value="" style="shape=image;html=1;verticalAlign=top;verticalLabelPosition=bottom;labelBackgroundColor=#ffffff;imageAspect=0;aspect=fixed;image=https://icons.diagrams.net/icon-cache1/Kameleon_Free_Pack-2373/Hacker-1007.svg" vertex="1" parent="1">
          <mxGeometry x="111" y="824" width="70.09" height="70.09" as="geometry" />
        </mxCell>
        <mxCell id="532qYWjqUrfOTz7QYn1a-34" value="" style="shape=image;html=1;verticalAlign=top;verticalLabelPosition=bottom;labelBackgroundColor=#ffffff;imageAspect=0;aspect=fixed;image=https://icons.diagrams.net/icon-cache1/bitsies_-2960/Crown-1486.svg" vertex="1" parent="1">
          <mxGeometry x="110" y="690" width="40" height="40" as="geometry" />
        </mxCell>
        <mxCell id="532qYWjqUrfOTz7QYn1a-35" style="edgeStyle=orthogonalEdgeStyle;rounded=0;orthogonalLoop=1;jettySize=auto;html=1;entryX=0;entryY=0.559;entryDx=0;entryDy=0;entryPerimeter=0;curved=1;sketch=1;curveFitting=1;jiggle=2;" edge="1" parent="1" source="532qYWjqUrfOTz7QYn1a-24" target="532qYWjqUrfOTz7QYn1a-34">
          <mxGeometry relative="1" as="geometry" />
        </mxCell>
        <mxCell id="532qYWjqUrfOTz7QYn1a-36" value="global adminstrator" style="shape=image;html=1;verticalAlign=top;verticalLabelPosition=bottom;labelBackgroundColor=#ffffff;imageAspect=0;aspect=fixed;image=https://icons.diagrams.net/icon-cache1/Kameleon_Free_Pack-2373/Hacker-1007.svg" vertex="1" parent="1">
          <mxGeometry x="94.94999999999999" y="699.91" width="70.09" height="70.09" as="geometry" />
        </mxCell>
        <mxCell id="532qYWjqUrfOTz7QYn1a-37" value="attacker managed GitHub" style="text;html=1;align=center;verticalAlign=middle;whiteSpace=wrap;rounded=0;" vertex="1" parent="1">
          <mxGeometry x="195.07" y="1211" width="156.62" height="30" as="geometry" />
        </mxCell>
      </root>
    </mxGraphModel>
  </diagram>
</mxfile>
